<!--?xml version="1.0" standalone="no"?-->
              <svg id="sw-js-blob-svg" viewBox="0 0 100 100" xmlns="http://www.w3.org/2000/svg" version="1.1">
                    <defs> 
                        <linearGradient id="sw-gradient" x1="0" x2="1" y1="1" y2="0">
                            <stop id="stop1" stop-color="#EF5A37" offset="0%"></stop>
                            <stop id="stop2" stop-color="#D63621" offset="100%"></stop>
                        </linearGradient>
                    </defs>
                <path fill="url(#sw-gradient)" d="M16.6,-20.7C24.5,-17.2,35.7,-16.2,37.6,-11.9C39.4,-7.5,31.9,0.2,27.3,7.2C22.7,14.1,21,20.4,16.9,23.4C12.9,26.4,6.4,26.2,-0.6,27C-7.6,27.8,-15.1,29.5,-19.8,26.7C-24.4,23.8,-26.1,16.4,-28.2,9.3C-30.4,2.2,-33,-4.7,-31.8,-10.8C-30.5,-17,-25.3,-22.3,-19.4,-26.4C-13.4,-30.5,-6.7,-33.3,-1.1,-31.7C4.4,-30.1,8.8,-24.2,16.6,-20.7Z" width="100%" height="100%" transform="translate(50 50)" stroke-width="0" style="transition: all 0.3s ease 0s;" stroke="url(#sw-gradient)"></path>
              </svg>