<!--?xml version="1.0" standalone="no"?-->
              <svg id="sw-js-blob-svg" viewBox="0 0 100 100" xmlns="http://www.w3.org/2000/svg" version="1.1">
                    <defs> 
                        <linearGradient id="sw-gradient" x1="0" x2="1" y1="1" y2="0">
                            <stop id="stop1" stop-color="#EF5A37" offset="0%"></stop>
                            <stop id="stop2" stop-color="#D63621" offset="100%"></stop>
                        </linearGradient>
                    </defs>
                <path fill="url(#sw-gradient)" d="M13.6,-22.3C17.6,-15.7,21,-11.8,23.8,-6.8C26.6,-1.9,28.9,4.1,26.7,8C24.5,11.8,17.7,13.4,12.5,16.3C7.3,19.1,3.7,23.1,-1.5,25C-6.6,27,-13.1,27.1,-20.5,25C-27.9,22.8,-36.1,18.6,-38.9,12.1C-41.8,5.6,-39.2,-3.1,-34.8,-9.6C-30.3,-16,-23.9,-20.1,-17.8,-26C-11.7,-31.9,-5.9,-39.5,-0.6,-38.8C4.8,-38,9.5,-28.8,13.6,-22.3Z" width="100%" height="100%" transform="translate(50 50)" stroke-width="0" style="transition: all 0.3s ease 0s;" stroke="url(#sw-gradient)"></path>
              </svg>