<!--?xml version="1.0" standalone="no"?-->
              <svg id="sw-js-blob-svg" viewBox="0 0 100 100" xmlns="http://www.w3.org/2000/svg" version="1.1">
                    <defs> 
                        <linearGradient id="sw-gradient" x1="0" x2="1" y1="1" y2="0">
                            <stop id="stop1" stop-color="#D63621" offset="0%"></stop>
                            <stop id="stop2" stop-color="#EF5A37" offset="100%"></stop>
                        </linearGradient>
                    </defs>
                <path fill="url(#sw-gradient)" d="M17.8,-21.9C24.3,-19.7,31.8,-16.2,33.2,-11C34.7,-5.7,30.1,1.3,25.6,6.2C21.1,11.1,16.5,13.8,12.3,20.5C8,27.2,4,37.9,-1.7,40.3C-7.5,42.7,-15,36.8,-20.7,30.6C-26.5,24.3,-30.5,17.8,-34.3,10.2C-38.1,2.6,-41.7,-6.1,-38,-10.7C-34.3,-15.4,-23.2,-16.1,-15.7,-17.9C-8.1,-19.8,-4.1,-22.9,0.8,-24C5.6,-25,11.2,-24.1,17.8,-21.9Z" width="100%" height="100%" transform="translate(50 50)" stroke-width="0" style="transition: all 0.3s ease 0s;" stroke="url(#sw-gradient)"></path>
              </svg>