<svg id="Layer_1" data-name="Layer 1" xmlns="http://www.w3.org/2000/svg" viewBox="0 0 92 164.81"><defs><style>.cls-1{fill:#fff;}.cls-2{fill:none;stroke:#000;stroke-miterlimit:10;stroke-width:5px;}</style></defs><title>go down svg</title><path class="cls-1" d="M9.5,130.5l32.25,32.86a9.8,9.8,0,0,0,14,0L88,130.5" transform="translate(-3 -4)"/><path class="cls-2" d="M9.5,130.5l32.25,32.86a9.8,9.8,0,0,0,14,0L88,130.5" transform="translate(-3 -4)"/><path class="cls-1" d="M5.5,77.5c0,27.5,19.58,50,43.5,50s43.5-22.5,43.5-50v-21c0-27.5-19.57-50-43.5-50S5.5,29,5.5,56.5Z" transform="translate(-3 -4)"/><path class="cls-2" d="M5.5,77.5c0,27.5,19.58,50,43.5,50s43.5-22.5,43.5-50v-21c0-27.5-19.57-50-43.5-50S5.5,29,5.5,56.5Z" transform="translate(-3 -4)"/><circle cx="46" cy="63" r="9"/></svg>