<?xml version="1.0" encoding="utf-8"?>
<!-- Generator: Adobe Illustrator 23.0.5, SVG Export Plug-In . SVG Version: 6.00 Build 0)  -->
<svg version="1.1" id="Layer_1" xmlns="http://www.w3.org/2000/svg" xmlns:xlink="http://www.w3.org/1999/xlink" x="0px" y="0px"
	 viewBox="0 0 533 387" style="enable-background:new 0 0 533 387;" xml:space="preserve">
<g>
	<path d="M479,30c22,0,40,15.08,40,33.5S501,97,479,97H54c-22,0-40-15.07-40-33.5S32,30,54,30H479z"/>
</g>
<g>
	<path d="M337,156c22,0,40,15.07,40,33.5S359,223,337,223H54c-22,0-40-15.07-40-33.5S32,156,54,156H337z"/>
</g>
<g>
	<path d="M226,282c22,0,40,15.08,40,33.5S248,349,226,349H54c-22,0-40-15.08-40-33.5S32,282,54,282H226z"/>
</g>
</svg>
