<svg xmlns="http://www.w3.org/2000/svg" xmlns:xlink="http://www.w3.org/1999/xlink" viewBox="0 0 100 100"><path fill="#c8ede6" d="M87.234,55.551c0.3-0.616,0.566-1.264,0.796-1.943c2.633-7.77-1.349-17.078-9.733-19.325C77.391,22.9,69.391,15.09,60.356,13.758c-10.341-1.525-19.814,5.044-22.966,15.485c-3.799-1.346-7.501-1.182-10.99,0.857c-1.583,0.732-3.031,1.812-4.33,3.233c-1.907,2.086-3.147,4.719-3.652,7.495c-0.748,0.118-1.483,0.236-2.176,0.484c-4.04,1.449-6.589,4.431-7.288,8.923c-0.435,2.797,0.443,5.587,0.933,6.714c1.935,4.455,6.422,6.98,10.981,6.312c0.227-0.033,0.557,0.069,0.752,0.233c0.241,7.12,3.698,13.417,8.884,17.014c8.321,5.772,19.027,3.994,25.781-3.921c2.894,2.96,6.338,4.398,10.384,3.876c4.023-0.519,7.147-2.739,9.426-6.349c1.053,0.283,2.051,0.691,3.083,0.804c4.042,0.442,7.297-1.184,9.732-4.8c0.083-0.124,0.203-0.219,0.306-0.328c0.348-0.798,0.696-1.596,1.044-2.394c0.155-1.211,0.429-2.423,0.443-3.632C90.742,60.508,89.411,57.54,87.234,55.551z"/><path fill="#fdfcef" d="M74.598,58.205c0,0,11.691,0,11.762,0c2.7,0,4.888-2.189,4.888-4.889c0-2.355-1.666-4.321-3.884-4.784c0.026-0.206,0.043-0.415,0.043-0.628c0-2.796-2.267-5.063-5.063-5.063c-1.651,0-3.113,0.794-4.037,2.017c-0.236-3.113-3.017-5.514-6.27-5.116c-2.379,0.291-4.346,2.13-4.784,4.486c-0.14,0.756-0.126,1.489,0.014,2.177c-0.638-0.687-1.546-1.119-2.557-1.119c-1.85,0-3.361,1.441-3.48,3.261c-0.84-0.186-1.754-0.174-2.717,0.188c-1.84,0.691-3.15,2.423-3.227,4.387c-0.109,2.789,2.12,5.085,4.885,5.085c0.21,0,0.948,0,1.118,0h10.151"/><path fill="#472b29" d="M86.36,58.705H74.598c-0.276,0-0.5-0.224-0.5-0.5s0.224-0.5,0.5-0.5H86.36c2.42,0,4.389-1.969,4.389-4.389c0-2.066-1.466-3.872-3.486-4.295c-0.254-0.053-0.426-0.292-0.394-0.551c0.022-0.186,0.039-0.374,0.039-0.566c0-2.517-2.047-4.563-4.563-4.563c-1.438,0-2.765,0.663-3.639,1.818c-0.125,0.166-0.342,0.236-0.539,0.178c-0.2-0.059-0.342-0.234-0.358-0.441c-0.104-1.377-0.778-2.671-1.85-3.549c-1.083-0.888-2.457-1.281-3.86-1.109c-2.165,0.266-3.955,1.943-4.353,4.081c-0.124,0.667-0.12,1.335,0.013,1.986c0.044,0.22-0.062,0.442-0.262,0.544c-0.196,0.104-0.442,0.061-0.595-0.104c-0.575-0.618-1.353-0.959-2.19-0.959c-1.568,0-2.878,1.228-2.98,2.794c-0.01,0.146-0.082,0.28-0.199,0.368c-0.116,0.087-0.266,0.118-0.408,0.088c-0.842-0.188-1.637-0.132-2.433,0.167c-1.669,0.627-2.836,2.209-2.903,3.938c-0.047,1.207,0.387,2.35,1.222,3.218s1.959,1.347,3.163,1.347h11.27c0.276,0,0.5,0.224,0.5,0.5s-0.224,0.5-0.5,0.5h-11.27c-1.479,0-2.858-0.587-3.884-1.653c-1.025-1.065-1.559-2.469-1.501-3.95c0.084-2.126,1.511-4.069,3.552-4.835c0.801-0.302,1.628-0.399,2.468-0.3c0.377-1.822,1.997-3.182,3.904-3.182c0.685,0,1.354,0.18,1.944,0.51c-0.001-0.386,0.035-0.772,0.107-1.159c0.476-2.562,2.619-4.573,5.214-4.891c1.673-0.203,3.32,0.266,4.615,1.328c1.004,0.823,1.717,1.951,2.038,3.193c1.013-0.916,2.319-1.426,3.714-1.426c3.067,0,5.563,2.496,5.563,5.563c0,0.083-0.002,0.166-0.007,0.248c2.254,0.674,3.848,2.777,3.848,5.164C91.749,56.288,89.332,58.705,86.36,58.705z"/><path fill="#fdfcef" d="M71.765,47.436c-1.808-0.119-3.365,1.13-3.476,2.789c-0.014,0.206-0.005,0.409,0.025,0.606c-0.349-0.394-0.865-0.661-1.458-0.7c-1.085-0.071-2.022,0.645-2.158,1.62c-0.197-0.054-0.403-0.09-0.616-0.104c-1.582-0.104-2.944,0.989-3.042,2.441"/><path fill="#472b29" d="M61.041,54.338c-0.006,0-0.011,0-0.017-0.001c-0.138-0.009-0.242-0.128-0.232-0.266c0.105-1.588,1.584-2.808,3.308-2.673c0.134,0.008,0.271,0.026,0.408,0.053c0.274-0.968,1.254-1.644,2.365-1.568c0.425,0.027,0.823,0.16,1.163,0.382c0.001-0.019,0.002-0.037,0.004-0.056c0.119-1.795,1.809-3.15,3.742-3.021c0.138,0.009,0.242,0.128,0.232,0.266c-0.008,0.137-0.104,0.261-0.266,0.232c-1.669-0.11-3.109,1.037-3.211,2.557c-0.012,0.187-0.004,0.372,0.023,0.552c0.017,0.109-0.04,0.218-0.141,0.265c-0.102,0.045-0.221,0.021-0.294-0.061c-0.317-0.359-0.787-0.584-1.287-0.617c-0.948-0.045-1.774,0.556-1.893,1.405c-0.011,0.071-0.051,0.135-0.11,0.175s-0.135,0.051-0.203,0.032c-0.191-0.052-0.382-0.084-0.566-0.097c-1.443-0.09-2.688,0.896-2.777,2.208C61.281,54.236,61.171,54.338,61.041,54.338z"/><path fill="#fdfcef" d="M88.339,49.105c-1.699-0.801-3.664-0.234-4.389,1.267c-0.09,0.186-0.157,0.379-0.201,0.574"/><path fill="#472b29" d="M83.75,51.195c-0.019,0-0.037-0.002-0.057-0.007c-0.134-0.03-0.218-0.165-0.187-0.3c0.05-0.216,0.123-0.427,0.219-0.625c0.783-1.622,2.9-2.241,4.721-1.385c0.125,0.06,0.179,0.208,0.12,0.333c-0.06,0.126-0.211,0.177-0.333,0.12c-1.575-0.742-3.394-0.227-4.057,1.148c-0.08,0.165-0.142,0.341-0.184,0.521C83.966,51.117,83.864,51.195,83.75,51.195z"/><path fill="#fff" d="M34.626 77.762h-10.03c-.276 0-.5-.224-.5-.5s.224-.5.5-.5h10.03c.276 0 .5.224.5.5S34.902 77.762 34.626 77.762zM37.506 77.762h-1.445c-.276 0-.5-.224-.5-.5s.224-.5.5-.5h1.445c.276 0 .5.224.5.5S37.783 77.762 37.506 77.762zM41.561 77.762h-2.546c-.276 0-.5-.224-.5-.5s.224-.5.5-.5h2.546c.276 0 .5.224.5.5S41.837 77.762 41.561 77.762zM41.561 79.628h-9.616c-.276 0-.5-.224-.5-.5s.224-.5.5-.5h9.616c.276 0 .5.224.5.5S41.837 79.628 41.561 79.628zM30.213 79.628h-.58c-.276 0-.5-.224-.5-.5s.224-.5.5-.5h.58c.276 0 .5.224.5.5S30.49 79.628 30.213 79.628zM27.836 79.628H26.38c-.276 0-.5-.224-.5-.5s.224-.5.5-.5h1.456c.276 0 .5.224.5.5S28.113 79.628 27.836 79.628zM36.972 75.897h-5.027c-.276 0-.5-.224-.5-.5s.224-.5.5-.5h5.027c.276 0 .5.224.5.5S37.249 75.897 36.972 75.897zM36.972 74.033h-1.257c-.276 0-.5-.224-.5-.5s.224-.5.5-.5h1.257c.276 0 .5.224.5.5S37.249 74.033 36.972 74.033zM33.704 81.492h-1.759c-.276 0-.5-.224-.5-.5s.224-.5.5-.5h1.759c.276 0 .5.224.5.5S33.98 81.492 33.704 81.492zM70.345 27.961H60.314c-.276 0-.5-.224-.5-.5s.224-.5.5-.5h10.031c.276 0 .5.224.5.5S70.622 27.961 70.345 27.961zM73.226 27.961H71.78c-.276 0-.5-.224-.5-.5s.224-.5.5-.5h1.446c.276 0 .5.224.5.5S73.502 27.961 73.226 27.961zM77.281 27.961h-2.546c-.276 0-.5-.224-.5-.5s.224-.5.5-.5h2.546c.276 0 .5.224.5.5S77.557 27.961 77.281 27.961zM75.254 24.231h-9.616c-.276 0-.5-.224-.5-.5s.224-.5.5-.5h9.616c.276 0 .5.224.5.5S75.531 24.231 75.254 24.231zM63.907 24.231h-.58c-.276 0-.5-.224-.5-.5s.224-.5.5-.5h.58c.276 0 .5.224.5.5S64.183 24.231 63.907 24.231zM61.53 24.231h-1.456c-.276 0-.5-.224-.5-.5s.224-.5.5-.5h1.456c.276 0 .5.224.5.5S61.806 24.231 61.53 24.231zM72.692 26.095h-5.027c-.276 0-.5-.224-.5-.5s.224-.5.5-.5h5.027c.276 0 .5.224.5.5S72.968 26.095 72.692 26.095z"/><path fill="#fff" d="M72.692 24.231h-1.258c-.276 0-.5-.224-.5-.5s.224-.5.5-.5h1.258c.276 0 .5.224.5.5S72.968 24.231 72.692 24.231zM66.209 26.095H64.45c-.276 0-.5-.224-.5-.5s.224-.5.5-.5h1.759c.276 0 .5.224.5.5S66.485 26.095 66.209 26.095z"/><path fill="#88ae45" d="M68.227,34.482c1.251-0.316,2.533,0.448,2.717,1.175l5.073,20.057c0.449,1.774-0.316,3.056-1.566,3.373l-39.95,10.105c-0.73,0.185-1.472,0.001-2.025-0.433"/><path fill="#472b29" d="M33.922,69.965c-0.673,0-1.331-0.225-1.878-0.654c-0.305-0.238-0.357-0.679-0.119-0.982c0.238-0.306,0.68-0.357,0.982-0.119c0.408,0.32,0.926,0.431,1.421,0.305l39.95-10.104c0.434-0.109,0.768-0.377,0.967-0.774c0.232-0.465,0.265-1.069,0.093-1.748l-5.073-20.058c-0.026-0.104-0.208-0.338-0.585-0.521c-0.407-0.196-0.876-0.25-1.281-0.147c-0.37,0.095-0.756-0.131-0.851-0.507c-0.095-0.375,0.132-0.756,0.507-0.851c0.732-0.185,1.527-0.099,2.236,0.245c0.69,0.335,1.188,0.872,1.331,1.437l5.073,20.058c0.255,1.009,0.187,1.949-0.198,2.719c-0.381,0.761-1.047,1.295-1.875,1.505l-39.95,10.104C34.423,69.933,34.171,69.965,33.922,69.965z"/><path fill="#c0d078" d="M69.033,57.502l-36.023,9.112c-2.316,0.586-4.69-0.83-5.276-3.146l-4.053-16.023c-0.586-2.316,0.83-4.69,3.146-5.276l36.023-9.112c2.316-0.586,4.69,0.83,5.276,3.146l4.053,16.023C72.765,54.542,71.35,56.916,69.033,57.502z"/><path fill="#472b29" d="M31.945,67.447c-0.897,0-1.784-0.242-2.58-0.717c-1.16-0.691-1.98-1.789-2.31-3.091l-4.053-16.022c-0.682-2.696,0.957-5.444,3.653-6.127l36.022-9.111c2.701-0.68,5.444,0.957,6.127,3.652l4.053,16.022c0.682,2.696-0.957,5.444-3.652,6.127l0,0l-36.023,9.112C32.773,67.396,32.358,67.447,31.945,67.447z M63.915,33.625c-0.295,0-0.594,0.036-0.893,0.111L27,42.847c-0.939,0.237-1.732,0.83-2.232,1.669s-0.645,1.818-0.407,2.757l4.053,16.022c0.237,0.939,0.83,1.732,1.669,2.232s1.817,0.646,2.757,0.407l36.023-9.112c1.948-0.493,3.132-2.479,2.639-4.426l-4.053-16.022C67.031,34.725,65.543,33.625,63.915,33.625z M69.034,57.502h0.01H69.034z"/><path fill="#88ae45" d="M53.808,39.187l-24.649,6.235c0.386,1.528-0.453,3.058-1.874,3.418l2.956,11.688c1.422-0.36,2.888,0.588,3.275,2.117l33.185-8.394c-0.387-1.529,0.453-3.059,1.875-3.419l-2.956-11.688l-0.001,0c-1.422,0.36-2.887-0.588-3.274-2.115l-2.981,0.754"/><path fill="#472b29" d="M33.516,62.968c-0.146,0-0.277-0.099-0.315-0.245c-0.341-1.354-1.639-2.198-2.879-1.881c-0.176,0.046-0.351-0.062-0.396-0.235l-2.957-11.688c-0.021-0.084-0.008-0.173,0.036-0.246c0.044-0.074,0.116-0.128,0.199-0.149c1.246-0.314,1.981-1.67,1.64-3.022c-0.044-0.174,0.062-0.351,0.235-0.395l24.648-6.235c0.181-0.043,0.351,0.062,0.396,0.235c0.044,0.175-0.062,0.352-0.235,0.396L29.54,45.661c0.226,1.476-0.556,2.897-1.864,3.395l2.807,11.095c1.391-0.173,2.753,0.695,3.255,2.103l32.584-8.242c-0.111-0.717,0.012-1.439,0.354-2.064c0.344-0.627,0.872-1.091,1.51-1.333l-2.807-11.094c-0.677,0.091-1.361-0.066-1.962-0.453c-0.599-0.387-1.05-0.965-1.293-1.648l-2.68,0.679c-0.178,0.047-0.351-0.062-0.396-0.235c-0.044-0.175,0.062-0.352,0.235-0.396l2.98-0.754c0.182-0.042,0.351,0.062,0.396,0.235c0.342,1.353,1.64,2.197,2.879,1.881c0.179-0.044,0.351,0.062,0.396,0.235l2.957,11.688c0.021,0.084,0.008,0.173-0.036,0.246c-0.044,0.074-0.116,0.128-0.199,0.149c-0.6,0.151-1.101,0.546-1.411,1.112c-0.314,0.573-0.396,1.252-0.229,1.911c0.021,0.084,0.008,0.173-0.036,0.246c-0.044,0.074-0.116,0.128-0.199,0.149l-33.185,8.394C33.569,62.965,33.542,62.968,33.516,62.968z"/><path fill="#472b29" d="M54.919,39.231c-0.146,0-0.277-0.099-0.315-0.245c-0.044-0.175,0.062-0.352,0.235-0.396l0.556-0.141c0.179-0.042,0.351,0.062,0.396,0.235c0.044,0.175-0.062,0.352-0.235,0.396L55,39.221C54.972,39.228,54.946,39.231,54.919,39.231z"/><path fill="#c0d078" d="M47.93 44.391A5.444 5.444 0 1 0 47.93 55.279A5.444 5.444 0 1 0 47.93 44.391Z" transform="rotate(-14.193 47.935 49.839)"/><path fill="#472b29" d="M47.931,55.605c-2.578,0-4.933-1.744-5.594-4.354c-0.779-3.085,1.095-6.229,4.178-7.009c3.091-0.775,6.229,1.095,7.009,4.179c0.779,3.084-1.095,6.228-4.179,7.008C48.872,55.548,48.398,55.605,47.931,55.605z M47.939,44.714c-0.421,0-0.845,0.053-1.264,0.159c-2.736,0.691-4.399,3.481-3.707,6.218c0.335,1.326,1.166,2.441,2.341,3.142c1.174,0.7,2.552,0.902,3.876,0.565c2.737-0.691,4.4-3.481,3.708-6.217c-0.335-1.326-1.166-2.441-2.341-3.143C49.749,44.96,48.851,44.714,47.939,44.714z"/><path fill="#c0d078" d="M37.582 50.437999999999995A1.719 1.719 0 1 0 37.582 53.876A1.719 1.719 0 1 0 37.582 50.437999999999995Z" transform="rotate(-14.193 37.586 52.161)"/><path fill="#472b29" d="M37.578,54.203c-0.363,0-0.722-0.099-1.042-0.289c-0.47-0.28-0.802-0.726-0.936-1.256c-0.134-0.528-0.053-1.078,0.227-1.547c0.279-0.47,0.725-0.802,1.255-0.936c0.528-0.133,1.08-0.053,1.548,0.226c0.469,0.28,0.801,0.726,0.935,1.256c0.134,0.528,0.054,1.078-0.226,1.547c-0.28,0.47-0.726,0.802-1.256,0.936C37.916,54.181,37.747,54.203,37.578,54.203z M37.585,50.762c-0.115,0-0.23,0.015-0.345,0.044c-0.361,0.091-0.665,0.317-0.855,0.637c-0.191,0.32-0.246,0.695-0.154,1.056c0.091,0.361,0.317,0.666,0.638,0.856c0.318,0.19,0.695,0.245,1.055,0.153c0.361-0.091,0.666-0.317,0.856-0.638c0.19-0.319,0.245-0.694,0.153-1.055c0,0,0,0,0-0.001c-0.091-0.36-0.317-0.665-0.637-0.855C38.078,50.83,37.834,50.762,37.585,50.762z"/><path fill="#c0d078" d="M58.138 45.239A1.719 1.719 0 1 0 58.138 48.677A1.719 1.719 0 1 0 58.138 45.239Z" transform="rotate(-14.193 58.143 46.96)"/><path fill="#472b29" d="M58.14,49.002c-0.914,0-1.749-0.617-1.984-1.542c-0.275-1.094,0.389-2.207,1.48-2.483c1.092-0.272,2.206,0.388,2.484,1.48l0,0c0.275,1.092-0.389,2.206-1.48,2.483C58.473,48.982,58.305,49.002,58.14,49.002z M58.138,45.564c-0.113,0-0.228,0.014-0.342,0.043c-0.745,0.188-1.198,0.947-1.01,1.693c0.189,0.744,0.952,1.2,1.694,1.009c0.744-0.188,1.197-0.948,1.009-1.692l0,0C59.331,45.985,58.761,45.564,58.138,45.564z"/><path fill="#fdfcef" d="M35.887,70.748c1.883,0,3.517,0,3.54,0c2.11,0,3.821-1.674,3.821-3.739c0-1.802-1.302-3.305-3.035-3.66c0.02-0.158,0.034-0.317,0.034-0.48c0-2.139-1.772-3.873-3.957-3.873c-1.29,0-2.433,0.607-3.155,1.543c-0.185-2.381-2.358-4.218-4.9-3.913c-1.859,0.223-3.397,1.629-3.739,3.431c-0.11,0.578-0.098,1.139,0.011,1.665c-0.498-0.525-1.208-0.856-1.998-0.856c-1.446,0-2.627,1.102-2.72,2.494c-0.657-0.142-1.371-0.133-2.123,0.143c-1.438,0.528-2.462,1.853-2.522,3.356c-0.085,2.133,1.657,3.889,3.818,3.889c0.164,0,0.741,0,0.874,0h7.934 M29.41,70.748h0.36"/><path fill="#472b29" d="M39.427,71.248h-3.54c-0.276,0-0.5-0.224-0.5-0.5s0.224-0.5,0.5-0.5h3.54c1.831,0,3.32-1.453,3.32-3.239c0-1.524-1.108-2.857-2.636-3.169c-0.255-0.053-0.428-0.293-0.396-0.552c0.017-0.138,0.029-0.276,0.029-0.419c0-1.86-1.551-3.373-3.457-3.373c-1.092,0-2.098,0.491-2.76,1.349c-0.126,0.164-0.341,0.231-0.538,0.174c-0.198-0.06-0.34-0.234-0.355-0.44c-0.079-1.02-0.565-1.944-1.369-2.604c-0.829-0.68-1.884-0.981-2.973-0.854c-1.646,0.197-3.007,1.442-3.308,3.028c-0.094,0.496-0.091,0.99,0.009,1.471c0.046,0.219-0.06,0.441-0.258,0.545c-0.197,0.103-0.438,0.063-0.595-0.1c-0.427-0.451-1.008-0.699-1.635-0.699c-1.169,0-2.145,0.891-2.221,2.027c-0.01,0.146-0.082,0.279-0.198,0.366c-0.116,0.088-0.264,0.121-0.407,0.089c-0.637-0.138-1.241-0.098-1.844,0.125c-1.262,0.463-2.145,1.631-2.195,2.906c-0.035,0.874,0.282,1.707,0.895,2.344c0.635,0.66,1.496,1.024,2.424,1.024h8.807c0.276,0,0.5,0.224,0.5,0.5s-0.224,0.5-0.5,0.5H18.96c-1.186,0-2.332-0.485-3.146-1.332c-0.802-0.834-1.218-1.927-1.173-3.076c0.068-1.675,1.213-3.204,2.85-3.806c0.612-0.224,1.241-0.309,1.881-0.244c0.345-1.396,1.629-2.424,3.135-2.424c0.5,0,0.98,0.11,1.414,0.318c0.009-0.239,0.036-0.48,0.082-0.721c0.381-2.01,2.097-3.587,4.171-3.835c1.368-0.167,2.686,0.218,3.726,1.072c0.748,0.613,1.278,1.409,1.546,2.302c0.791-0.648,1.786-1.007,2.843-1.007c2.458,0,4.457,1.962,4.457,4.373c0,0.034-0.001,0.068-0.002,0.103c1.765,0.554,3.004,2.188,3.004,4.037C43.748,69.346,41.809,71.248,39.427,71.248z M29.769,71.248H29.41c-0.276,0-0.5-0.224-0.5-0.5s0.224-0.5,0.5-0.5h0.359c0.276,0,0.5,0.224,0.5,0.5S30.045,71.248,29.769,71.248z"/><path fill="#472b29" d="M37.719 65.445c-.018 0-.036-.002-.055-.006-.135-.03-.22-.164-.189-.299.037-.166.095-.327.171-.479.604-1.224 2.272-1.675 3.721-1.006.126.058.181.206.122.331-.058.126-.208.181-.331.122-1.205-.557-2.578-.209-3.063.774-.06.117-.103.24-.131.367C37.937 65.366 37.834 65.445 37.719 65.445zM32.561 71.248h-1.107c-.276 0-.5-.224-.5-.5s.224-.5.5-.5h1.107c.276 0 .5.224.5.5S32.837 71.248 32.561 71.248z"/><path fill="#fbcd59" d="M71.765 49.224A6.243 6.243 0 1 0 71.765 61.71A6.243 6.243 0 1 0 71.765 49.224Z"/><path fill="#472b29" d="M71.765,62.21c-3.718,0-6.743-3.024-6.743-6.742s3.025-6.743,6.743-6.743s6.742,3.025,6.742,6.743S75.483,62.21,71.765,62.21z M71.765,49.724c-3.167,0-5.743,2.576-5.743,5.743c0,3.166,2.576,5.742,5.743,5.742c3.166,0,5.742-2.576,5.742-5.742C77.507,52.3,74.931,49.724,71.765,49.724z"/><path fill="#f1bc19" d="M71.765 51.385A4.082 4.082 0 1 0 71.765 59.549A4.082 4.082 0 1 0 71.765 51.385Z"/><path fill="#472b29" d="M71.765,59.798c-2.389,0-4.332-1.943-4.332-4.331c0-2.389,1.943-4.332,4.332-4.332s4.332,1.943,4.332,4.332C76.097,57.855,74.154,59.798,71.765,59.798z M71.765,51.635c-2.113,0-3.832,1.719-3.832,3.832c0,2.112,1.719,3.831,3.832,3.831s3.832-1.719,3.832-3.831C75.597,53.354,73.878,51.635,71.765,51.635z"/><path fill="#fbcd59" d="M61.723 56.4A6.243 6.243 0 1 0 61.723 68.886A6.243 6.243 0 1 0 61.723 56.4Z"/><path fill="#472b29" d="M61.723,69.386c-3.718,0-6.743-3.025-6.743-6.743s3.025-6.742,6.743-6.742s6.743,3.024,6.743,6.742S65.441,69.386,61.723,69.386z M61.723,56.901c-3.167,0-5.743,2.576-5.743,5.742c0,3.167,2.576,5.743,5.743,5.743s5.743-2.576,5.743-5.743C67.466,59.477,64.89,56.901,61.723,56.901z"/><path fill="#f1bc19" d="M61.723 58.562A4.082 4.082 0 1 0 61.723 66.726A4.082 4.082 0 1 0 61.723 58.562Z"/><path fill="#472b29" d="M61.723,66.975c-2.389,0-4.332-1.943-4.332-4.332s1.943-4.332,4.332-4.332s4.332,1.943,4.332,4.332S64.112,66.975,61.723,66.975z M61.723,58.811c-2.113,0-3.832,1.719-3.832,3.832s1.719,3.832,3.832,3.832s3.832-1.719,3.832-3.832S63.836,58.811,61.723,58.811z"/><path fill="#472b29" d="M61.191 63.734c.006 0 .017.006.034.017l-.009-.004c.082.056.155.101.22.133.065.032.134.055.207.069v-1.314l-.076-.042c-.093-.051-.182-.104-.266-.161-.085-.056-.161-.118-.228-.186-.068-.067-.125-.139-.171-.215-.046-.076-.078-.159-.095-.249-.011-.045-.018-.087-.019-.127-.001-.04-.002-.082-.002-.127 0-.132.022-.248.065-.346.044-.099.104-.183.18-.251.076-.069.166-.124.27-.165.104-.041.218-.068.342-.082v-.118c0-.056.013-.104.038-.144.025-.04.072-.059.139-.059h.017c.146 0 .227.072.241.215l-.004.114c.079.014.16.036.243.066.083.03.177.067.281.112l-.012-.008c.048.017.085.038.112.063.027.025.043.066.049.122v.025c0 .02-.005.045-.015.076-.01.031-.025.061-.044.089-.02.028-.042.053-.068.074-.025.021-.054.032-.085.032-.025 0-.049-.002-.07-.007-.021-.004-.046-.016-.074-.036v.004l-.046-.025c-.082-.042-.172-.076-.27-.101v1.154l.017.009c.228.116.404.244.528.385.124.141.206.287.245.44.017.065.029.124.036.177.007.054.011.108.011.165 0 .13-.021.247-.064.351-.042.104-.1.195-.173.273-.073.077-.161.141-.264.19-.103.05-.215.083-.336.099v.304c0 .056-.011.104-.034.144-.022.039-.069.059-.139.059h-.025c-.071 0-.127-.019-.169-.057-.042-.038-.064-.094-.064-.167v-.283c-.152-.017-.283-.051-.393-.101-.11-.051-.223-.114-.338-.19-.031-.025-.052-.049-.064-.072-.011-.022-.024-.053-.038-.093v-.025c0-.025.008-.054.023-.086.015-.033.034-.064.057-.093.023-.03.046-.055.072-.076.025-.021.049-.032.072-.032.031 0 .058.009.083.028.024.018.047.037.069.057H61.191c.006.003.01.004.012.004L61.191 63.734zM61.408 61.938c.066.062.144.117.235.165v-.926c-.107.023-.196.066-.268.131-.072.065-.108.152-.108.262 0 .017.001.035.002.055s.005.044.011.072C61.299 61.795 61.342 61.876 61.408 61.938zM62.277 63.051c-.056-.069-.124-.129-.203-.18v1.053c.098-.04.181-.1.247-.182.066-.082.099-.177.099-.287 0-.031-.003-.059-.008-.085-.006-.025-.011-.052-.017-.08C62.373 63.2 62.333 63.12 62.277 63.051zM71.108 56.558c.006 0 .017.006.034.017l-.009-.004c.082.056.155.101.22.133.065.032.134.055.207.069v-1.314l-.076-.042c-.093-.051-.182-.104-.266-.161-.085-.056-.161-.118-.228-.186-.068-.067-.125-.139-.171-.215-.046-.076-.078-.159-.095-.249-.011-.045-.018-.087-.019-.127-.001-.04-.002-.082-.002-.127 0-.132.022-.248.065-.346.044-.099.104-.183.18-.251.076-.069.166-.124.27-.165.104-.041.218-.068.342-.082v-.118c0-.056.013-.104.038-.144.025-.04.072-.059.139-.059h.017c.146 0 .227.072.241.215l-.004.114c.079.014.16.036.243.066.083.03.177.067.281.112l-.012-.008c.048.017.085.038.112.063.027.025.043.066.049.122v.025c0 .02-.005.045-.015.076-.01.031-.025.061-.044.089-.02.028-.042.053-.068.074-.025.021-.054.032-.085.032-.025 0-.049-.002-.07-.007-.021-.004-.046-.016-.074-.036v.004l-.046-.025c-.082-.042-.172-.076-.27-.101v1.154l.017.009c.228.116.404.244.528.385.124.141.206.287.245.44.017.065.029.124.036.177.007.054.011.108.011.165 0 .13-.021.247-.064.351-.042.104-.1.195-.173.273-.073.077-.161.141-.264.19-.103.05-.215.083-.336.099v.304c0 .056-.011.104-.034.144-.022.039-.069.059-.139.059h-.025c-.071 0-.127-.019-.169-.057-.042-.038-.064-.094-.064-.167v-.283c-.152-.017-.283-.051-.393-.101-.11-.051-.223-.114-.338-.19-.031-.025-.052-.049-.064-.072-.011-.022-.024-.053-.038-.093V56.76c0-.025.008-.054.023-.086.015-.033.034-.064.057-.093.023-.03.046-.055.072-.076.025-.021.049-.032.072-.032.031 0 .058.009.083.028.024.018.047.037.069.057H71.108c.006.003.01.004.012.004L71.108 56.558zM71.325 54.761c.066.062.144.117.235.165V54c-.107.023-.196.066-.268.131-.072.065-.108.152-.108.262 0 .017.001.035.002.055s.005.044.011.072C71.216 54.619 71.259 54.699 71.325 54.761zM72.194 55.875c-.056-.069-.124-.129-.203-.18v1.053c.098-.04.181-.1.247-.182.066-.082.099-.177.099-.287 0-.031-.003-.059-.008-.085-.006-.025-.011-.052-.017-.08C72.29 56.024 72.25 55.944 72.194 55.875z"/></svg>