<?xml version="1.0" encoding="utf-8"?>
<!-- Generator: Adobe Illustrator 23.0.5, SVG Export Plug-In . SVG Version: 6.00 Build 0)  -->
<svg version="1.1" id="BACKGROUND_2" xmlns="http://www.w3.org/2000/svg" xmlns:xlink="http://www.w3.org/1999/xlink" x="0px"
	 y="0px" viewBox="0 0 752.24 500" style="enable-background:new 0 0 752.24 500;" xml:space="preserve">
<style type="text/css">
	.st0{fill:#490E2E;}
	.st1{clip-path:url(#SVGID_2_);fill:#3A0A22;}
	.st2{clip-path:url(#SVGID_2_);}
	.st3{fill:#FF6B19;}
	.st4{fill:#FFF1BE;}
	.st5{fill:#FEC465;}
	.st6{opacity:0.5;fill:#FFFFFF;}
	.st7{fill:#BC1B2A;}
	.st8{fill:#910811;}
	.st9{fill:#FDB740;}
	.st10{opacity:0.5;fill:#BE6641;}
	.st11{fill:#FFCF62;}
	.st12{fill:#FAAF40;}
	.st13{clip-path:url(#SVGID_2_);fill:#FEFFFF;}
	.st14{fill:#FFAD1C;}
	.st15{fill:#FFEDCF;}
	.st16{fill:#B99590;}
	.st17{fill:#8C5954;}
	.st18{opacity:0.5;fill:#B99590;}
	.st19{fill:#FFFFFF;}
	.st20{fill:#E5E6E7;}
	.st21{fill:#1C75BC;}
	.st22{fill:#1066A0;}
	.st23{fill:#8DC63F;}
	.st24{opacity:0.5;fill:#1C75BC;}
	.st25{opacity:0.3;fill:#FFFFFF;}
	.st26{fill:#EF4351;}
	.st27{fill:#D13044;}
	.st28{fill:#FF9A8F;}
	.st29{opacity:0.5;fill:#F76DC9;}
	.st30{fill:#F37551;}
	.st31{opacity:0.2;fill:#F26646;}
	.st32{fill:#EF5A37;}
	.st33{opacity:0.3;fill:#EF5A37;}
	.st34{fill:#D63621;}
	.st35{clip-path:url(#SVGID_2_);fill:#F67B00;}
	.st36{clip-path:url(#SVGID_2_);fill:#FFCF62;}
	.st37{display:none;}
	.st38{display:inline;fill:#FFEDCF;}
	.st39{font-family:'Bungee-Regular';}
	.st40{font-size:61.5283px;}
	.st41{font-size:31.5761px;}
	.st42{display:inline;}
</style>
<g>
	<rect x="2.24" class="st0" width="750" height="500"/>
	<g>
		<defs>
			<rect id="SVGID_1_" x="2.24" width="750" height="500"/>
		</defs>
		<clipPath id="SVGID_2_">
			<use xlink:href="#SVGID_1_"  style="overflow:visible;"/>
		</clipPath>
		<path class="st1" d="M139.62,76.77c20-3.88,46.58-1.94,52.91,17.43c6.04,18.47-11.56,41.88,1.24,56.49
			c6.19,7.07,16.87,7.94,26.2,6.79c42-5.19,73.68-38.83,108.48-62.9c58.95-40.76,156.07-66.31,224.67-34.42
			c11.26,5.23,21.39,14.18,25.17,26.01c3.78,11.83-0.32,26.51-11.21,32.5c-11.37,6.25-25.3,1.78-38-0.86
			c-12.7-2.64-28.98-1.56-34.55,10.16c-3.87,8.15-0.4,18.17,5.58,24.93c13.19,14.93,35.76,17.48,55.41,14.2
			c42.84-7.14,82.55-23.35,126.9-20.44c45.88,3,84.13,18.21,101.82,62.98c22.29,56.41,8.93,121.74-43.47,154.71
			c-46.29,29.12-102.95,37-155.36,48.64c-28.6,6.35-146.62,34.98-144.83-21.98c0.39-12.4,10.18-22.25,19.62-30.32
			c16.99-14.52,33.56-35.91,15.51-57.32c-6.24-7.4-14.86-12.36-23.55-16.62c-80.17-39.26-159.51-23.6-233.15,19.78
			c-63.08,37.15-128.54,86.81-206.26,71.95c-6.28-1.2-12.62-2.84-17.96-6.35c-24.42-16.05-0.76-42.65,13.52-55.58
			c9.82-8.89,20.22-18.13,24.66-30.61c17.31-48.68-62.36-42.26-85.99-55.96c-4-2.32-7.88-5.39-9.52-9.73
			c-9.19-24.37,66.6-75.51,83.19-87.76C56.15,106.3,96,85.24,139.62,76.77z"/>
		<g class="st2">
			<path class="st3" d="M400.38,94.8c5.86-3.79,11.58-7.54,16.81-11.57c5.19-4.02,10.06-8.35,13.08-13c1.49-2.32,2.46-4.65,2.69-6.9
				c0.11-1.12,0.06-2.23-0.16-3.32c-0.23-0.98-0.58-1.81-1.06-2.6c-1.02-1.5-2.85-2.93-5.5-3.98c-2.61-1.12-5.73-1.83-9.25-2.62
				l-0.02-0.01c-0.36-0.08-0.55-0.4-0.43-0.72c0.06-0.15,0.18-0.28,0.33-0.36c3.43-1.77,7.39-2.57,11.47-2.36
				c2.03,0.11,4.13,0.5,6.09,1.34c0.5,0.18,0.98,0.42,1.46,0.68c0.47,0.26,0.95,0.52,1.37,0.85c0.43,0.33,0.89,0.62,1.28,0.99
				l1.13,1.15c1.41,1.63,2.25,3.59,2.69,5.53c0.36,1.85,0.41,3.77,0.18,5.67c-0.54,3.82-2.29,7.4-4.57,10.39
				c-2.27,3.03-5.02,5.58-7.91,7.84c-2.91,2.25-5.99,4.21-9.17,5.94c-3.17,1.75-6.46,3.25-9.8,4.59c-3.33,1.35-6.75,2.5-10.22,3.42
				c-0.35,0.09-0.69-0.07-0.77-0.36C400.05,95.18,400.17,94.94,400.38,94.8z"/>
			<path class="st4" d="M412.44,89.44c2.17-1.51,4.29-3.05,6.35-4.63c4.16-3.22,10.09-8.12,13.66-13.63
				c1.76-2.73,2.77-5.36,3.03-7.83c0.13-1.36,0.06-2.66-0.19-3.89c-0.28-1.18-0.7-2.21-1.29-3.19l-0.06-0.1
				c-1.34-1.96-3.59-3.61-6.5-4.76c-1.39-0.6-2.93-1.09-4.52-1.52c1.64-0.32,3.35-0.44,5.09-0.35c1.92,0.11,3.67,0.49,5.18,1.14
				l0.12,0.05c0.33,0.12,0.68,0.29,1.12,0.53l0.19,0.11c0.35,0.19,0.65,0.36,0.88,0.54l0.46,0.34c0.24,0.17,0.48,0.34,0.69,0.53
				l1.02,1.04c1.05,1.23,1.82,2.85,2.24,4.67c0.3,1.58,0.36,3.29,0.15,5.03c-0.45,3.14-1.88,6.38-4.14,9.35
				c-1.89,2.52-4.32,4.93-7.44,7.37c-2.64,2.04-5.6,3.96-8.78,5.69C417.44,87.17,415.06,88.32,412.44,89.44z"/>
			<path class="st3" d="M454.32,54.1c-2.27-2.56-4.84-4.75-7.81-6.44c-3.03-1.62-6.34-2.73-9.76-3.47l-2.63-0.4
				c-0.86-0.17-1.78-0.14-2.66-0.22l-1.33-0.1c-0.44-0.03-0.9,0-1.35,0c-0.9,0.02-1.79-0.01-2.69,0.04
				c-3.59,0.18-7.17,0.8-10.64,1.67c-3.47,0.94-6.78,2.26-9.89,3.82l-2.25,1.29c-0.79,0.42-1.33,0.84-1.96,1.31
				c-1.21,0.92-2.27,1.97-3.05,3.04c-0.78,1.08-1.21,2.13-1.43,3.1c-0.15,0.99-0.21,1.73,0.2,2.62c0.38,0.9,1.28,1.93,2.53,2.89
				c1.23,0.99,2.75,1.9,4.37,2.96l0.02,0.01c0.29,0.19,0.33,0.57,0.08,0.84c-0.11,0.12-0.26,0.2-0.41,0.23
				c-2.15,0.46-4.34,0.5-6.54,0.11c-2.18-0.39-4.46-1.27-6.26-3.04c-0.9-0.87-1.58-1.99-2-3.18c-0.41-1.2-0.52-2.47-0.43-3.66
				c0.22-2.42,1.31-4.67,2.7-6.54c1.39-1.88,3.07-3.48,4.91-4.85c0.91-0.66,1.95-1.36,2.88-1.84l2.85-1.53
				c3.9-1.85,8-3.26,12.19-4.16c4.2-0.83,8.45-1.25,12.65-1.13c4.19,0.19,8.3,0.83,12.14,2.07c3.83,1.27,7.31,3.14,10.26,5.47
				c2.86,2.44,5.02,5.37,6.44,8.51c0.12,0.27-0.04,0.6-0.37,0.73c-0.27,0.11-0.57,0.04-0.74-0.14L454.32,54.1z"/>
			<path class="st4" d="M398.38,65.35c-0.19-0.03-0.38-0.06-0.57-0.09c-2.07-0.37-3.75-1.18-5.01-2.41
				c-0.66-0.64-1.2-1.51-1.53-2.45c-0.29-0.85-0.41-1.86-0.33-2.89c0.2-2.24,1.35-4.19,2.27-5.43c1.18-1.59,2.61-3,4.38-4.32
				c0.98-0.72,1.82-1.25,2.47-1.59l2.84-1.53c3.12-1.48,6.38-2.65,9.69-3.49c0.6-0.15,1.19-0.29,1.79-0.42
				c4.1-0.81,8.13-1.17,11.94-1.06c4.13,0.19,7.97,0.85,11.38,1.95c1.25,0.41,2.46,0.9,3.62,1.44c-1.22-0.37-2.49-0.7-3.79-0.99
				l-0.17-0.03l-2.57-0.39c-0.72-0.14-1.4-0.17-2.01-0.2c-0.28-0.01-0.57-0.03-0.85-0.05l-1.39-0.11c-0.41-0.02-0.77-0.02-1.13-0.01
				l-0.42,0c-0.4,0.01-0.71,0.01-1.03,0.01c-0.61,0-1.23,0-1.84,0.04c-3.52,0.18-7.18,0.75-11.19,1.75
				c-3.55,0.96-7.06,2.32-10.51,4.05l-0.14,0.07l-2.25,1.29c-0.87,0.46-1.52,0.95-2.14,1.42l-0.11,0.08
				c-1.43,1.08-2.67,2.32-3.59,3.59c-0.89,1.23-1.49,2.54-1.8,3.9l-0.03,0.14c-0.17,1.16-0.28,2.32,0.34,3.68
				c0.63,1.49,2.05,2.81,3.13,3.64C398.02,65.08,398.2,65.21,398.38,65.35z"/>
			<path class="st3" d="M361.03,69.89c4.79,5.66,11.3,10.18,18.93,11.39c1.9,0.34,3.78,0.44,5.8,0.39c2.01-0.04,4.03-0.13,6.05-0.39
				c4.03-0.45,8.02-1.37,11.8-2.59c3.77-1.24,7.33-2.95,10.22-5.13l1.06-0.82c0.31-0.27,0.61-0.53,0.9-0.83
				c0.57-0.57,1.11-1.19,1.54-1.83c0.9-1.28,1.45-2.63,1.58-3.8c0.05-0.58-0.02-1.11-0.18-1.6c-0.07-0.25-0.2-0.47-0.32-0.7
				c-0.16-0.26-0.43-0.57-0.62-0.85c-0.87-1.14-1.83-2.04-2.98-2.67c-2.24-1.3-6.07-1.42-10.44-0.86l-0.08,0.01
				c-0.37,0.05-0.68-0.17-0.71-0.49c-0.01-0.16,0.05-0.31,0.17-0.43c1.62-1.69,3.72-2.92,6.19-3.67c2.44-0.75,5.37-0.91,8.03-0.08
				c2.68,0.81,4.72,2.52,6.11,4.32c0.34,0.47,0.67,0.89,1,1.42c0.33,0.58,0.62,1.17,0.81,1.81c0.4,1.25,0.53,2.58,0.4,3.85
				c-0.28,2.54-1.39,4.82-2.82,6.78c-0.71,0.99-1.54,1.9-2.43,2.77c-0.44,0.43-0.93,0.84-1.41,1.24l-1.44,1.07
				c-3.94,2.74-8.33,4.59-12.76,5.89c-2.22,0.65-4.46,1.17-6.72,1.51c-2.25,0.37-4.51,0.61-6.76,0.73c-2.25,0.13-4.5,0.15-6.74,0
				c-1.11-0.06-2.26-0.2-3.39-0.34c-1.12-0.2-2.24-0.4-3.32-0.7c-2.16-0.57-4.23-1.34-6.12-2.33c-1.88-1-3.6-2.17-5.16-3.45
				c-3.11-2.59-5.48-5.7-7.26-9c-0.14-0.27,0-0.6,0.32-0.75C360.53,69.62,360.86,69.69,361.03,69.89z"/>
			<path class="st4" d="M402.82,82.55c-1.51,0.38-2.99,0.68-4.39,0.89c-2.11,0.35-4.28,0.58-6.48,0.7c-2.3,0.13-4.38,0.13-6.39,0
				c-0.98-0.05-1.98-0.17-3.03-0.3c0,0-0.27-0.04-0.3-0.05c1.07,0.07,2.19,0.1,3.39,0.07c1.71-0.04,3.98-0.11,6.34-0.41
				c2.61-0.29,5.35-0.79,8.1-1.49c1.41-0.36,2.84-0.77,4.25-1.23c4.36-1.44,8.08-3.31,11.07-5.57l1.16-0.9l0.21-0.19
				c0.31-0.27,0.61-0.54,0.9-0.84c0.73-0.74,1.33-1.45,1.81-2.16c1.08-1.54,1.78-3.24,1.94-4.76c0.07-0.83-0.01-1.61-0.25-2.36
				c-0.11-0.39-0.3-0.74-0.45-1.02l-0.07-0.12c-0.12-0.19-0.28-0.4-0.44-0.62c-0.08-0.1-0.16-0.21-0.23-0.31
				c-1.15-1.51-2.35-2.57-3.72-3.31c-1.44-0.83-3.39-1.32-5.83-1.45c0.06-0.02,0.11-0.04,0.17-0.05c0.18-0.06,0.36-0.11,0.54-0.15
				c1.98-0.5,4.04-0.47,5.81,0.08c2.41,0.73,4.04,2.34,4.99,3.57l0.28,0.39c0.2,0.27,0.4,0.54,0.6,0.86
				c0.28,0.5,0.49,0.95,0.62,1.38c0.32,1,0.43,2.07,0.33,3.11c-0.21,1.91-1.02,3.84-2.41,5.74c-0.58,0.81-1.28,1.61-2.15,2.44
				c-0.36,0.35-0.76,0.69-1.21,1.07l-1.38,1.03c-3.27,2.27-7.17,4.07-11.85,5.43C404.11,82.21,403.47,82.39,402.82,82.55z"/>
			<path class="st3" d="M412.87,31.2c-4.2,2.81-8.3,5.67-12.16,8.66c-3.85,2.98-7.5,6.1-10.49,9.4c-3.02,3.26-5.23,6.84-5.68,9.96
				c-0.2,1.56-0.02,3,0.61,4.41c0.67,1.39,1.74,2.75,3.05,4.04l-0.36-0.3c0.79,0.56,2.17,1.17,3.61,1.72
				c1.47,0.53,3.05,1.06,4.69,1.51c1.64,0.46,3.34,0.9,5.11,1.26c1.79,0.36,3.6,0.65,5.76,0.81l0.04,0
				c0.38,0.03,0.64,0.32,0.58,0.66c-0.02,0.13-0.09,0.24-0.18,0.33c-1.64,1.61-3.88,2.65-6.13,3.32c-2.26,0.67-4.61,0.99-6.91,1.01
				c-2.31,0-4.61-0.22-6.85-0.82c-2.25-0.59-4.45-1.45-6.65-3.06l-0.21-0.15l-0.15-0.15c-1.9-1.91-3.66-4.09-4.72-6.75
				c-1.07-2.65-1.3-5.71-0.65-8.55c0.62-2.85,2-5.44,3.63-7.68c1.63-2.27,3.58-4.22,5.61-5.99c4.11-3.52,8.63-6.33,13.31-8.73
				c2.35-1.2,4.73-2.3,7.18-3.27c2.44-0.98,4.89-1.89,7.45-2.61c0.34-0.1,0.69,0.06,0.78,0.35c0.07,0.22-0.04,0.46-0.25,0.6
				L412.87,31.2z"/>
			<path class="st4" d="M399.92,75.13c-1.7,0.43-3.5,0.66-5.33,0.68c-2.25,0-4.26-0.23-6.11-0.73c-2.36-0.62-4.16-1.44-5.84-2.68
				l-0.07-0.05l-0.03-0.03c-2.12-2.14-3.48-4.08-4.3-6.11c-0.92-2.29-1.13-4.99-0.57-7.42c0.49-2.28,1.59-4.59,3.26-6.89
				c1.33-1.85,3.04-3.67,5.22-5.57c3.55-3.04,7.73-5.78,12.75-8.35c0.59-0.3,1.17-0.59,1.74-0.87c-0.52,0.39-1.03,0.78-1.53,1.17
				c-4.63,3.58-8.08,6.67-10.83,9.72c-3.54,3.82-5.77,7.78-6.24,11.13c-0.25,1.98,0,3.75,0.75,5.43c0.72,1.49,1.81,2.96,3.25,4.42
				l0.16,0.16l0.2,0.13c0.88,0.57,2.19,1.19,3.9,1.83c1.95,0.7,3.46,1.18,4.93,1.58c2.04,0.57,3.68,0.97,5.27,1.3
				c0.63,0.13,1.24,0.24,1.83,0.34c-0.52,0.21-1.07,0.41-1.67,0.59C400.43,75,400.17,75.07,399.92,75.13z"/>
			<path class="st5" d="M416.82,33.62c1.2-1.12,2.55-1.92,3.96-2.6c1.41-0.67,2.89-1.19,4.4-1.57c1.52-0.37,3.07-0.62,4.63-0.72
				c1.56-0.12,3.14-0.15,4.71-0.07c3.14,0.16,6.28,0.81,9.05,2.08c2.76,1.27,5.08,3.21,6.39,5.56c0.15,0.27,0.01,0.62-0.32,0.77
				c-0.21,0.1-0.44,0.09-0.63,0.01L449,37.06c-1.24-0.61-2.43-1.14-3.64-1.58c-1.24-0.41-2.46-0.74-3.72-0.98
				c-2.51-0.46-5.09-0.61-7.72-0.55c-2.64,0.02-5.31,0.4-8.03,0.61c-2.74,0.2-5.54,0.36-8.66,0.05l-0.04,0
				c-0.38-0.04-0.63-0.34-0.56-0.67C416.65,33.82,416.72,33.71,416.82,33.62z"/>
			<path class="st5" d="M448.36,55.26c1.72,0.46,2.87,1.38,3.75,2.46c0.88,1.08,1.39,2.35,1.62,3.67c0.49,2.65,0.32,5.48-0.64,8.13
				c-0.21,0.67-0.56,1.3-0.84,1.94c-0.16,0.32-0.3,0.64-0.48,0.95l-0.59,0.9c-0.41,0.59-0.77,1.2-1.24,1.74l-1.46,1.58
				c-0.94,1.06-2.16,1.89-3.24,2.79c-1.19,0.8-2.44,1.52-3.68,2.19c-0.31,0.17-0.7,0.09-0.87-0.16c-0.12-0.18-0.1-0.39,0.02-0.56
				l0.04-0.06c0.76-1.08,1.57-2.06,2.34-3.04l1.02-1.53c0.34-0.5,0.72-0.97,0.96-1.5c1.21-2.02,1.98-4.07,2.47-6.08
				c0.47-2.02,0.42-4.04,0.05-6c-0.4-1.98-0.74-3.88-0.29-6.72l0.02-0.1c0.06-0.36,0.44-0.64,0.85-0.62
				C448.25,55.24,448.31,55.25,448.36,55.26z"/>
			<path class="st5" d="M370.49,70.14c-1.62-0.36-2.82-1.11-3.82-2.03c-0.99-0.92-1.72-2.02-2.21-3.21
				c-0.88-2.41-1.23-5.05-0.81-7.65c0.03-0.65,0.28-1.29,0.41-1.93l0.25-0.95c0.11-0.31,0.25-0.62,0.37-0.93
				c0.26-0.61,0.5-1.23,0.8-1.82c0.34-0.58,0.69-1.15,1.05-1.71c0.65-1.15,1.67-2.12,2.51-3.13c0.95-0.96,2.02-1.82,3.07-2.65
				c0.27-0.21,0.68-0.21,0.9,0.01c0.15,0.15,0.18,0.35,0.11,0.53l-0.03,0.07c-0.45,1.14-0.99,2.2-1.47,3.25l-0.6,1.6l-0.32,0.77
				l-0.23,0.79c-0.15,0.52-0.3,1.04-0.47,1.54l-0.29,1.54l-0.15,0.76l-0.06,0.75c-0.02,0.5-0.13,1-0.09,1.49
				c-0.06,1.98,0.32,3.88,0.92,5.73c0.52,1.89,1.01,3.79,1.09,6.4l0,0.09c0.01,0.35-0.31,0.66-0.71,0.7
				C370.65,70.17,370.57,70.16,370.49,70.14z"/>
			<path class="st5" d="M401.72,89.02c-1.53,2.59-3.98,4.14-6.61,5.17c-2.66,0.96-5.52,1.44-8.37,1.63
				c-2.85,0.21-5.74-0.12-8.38-0.84c-0.66-0.19-1.31-0.41-1.94-0.62c-0.61-0.28-1.21-0.57-1.8-0.86c-0.29-0.15-0.59-0.28-0.86-0.46
				l-0.78-0.56c-0.52-0.37-1.01-0.76-1.47-1.16c-0.24-0.21-0.23-0.57,0.03-0.8c0.16-0.14,0.36-0.2,0.56-0.18l0.09,0.01
				c0.66,0.06,1.3,0.13,1.91,0.22l0.91,0.13l0.93,0.06c0.61,0.04,1.21,0.09,1.79,0.14c0.61,0,1.2-0.01,1.79,0.01
				c2.36-0.03,4.65-0.17,6.95-0.59c2.3-0.36,4.56-0.96,6.87-1.53c2.33-0.51,4.74-0.87,7.76-0.68l0.08,0
				c0.41,0.03,0.69,0.33,0.63,0.69C401.79,88.88,401.76,88.95,401.72,89.02z"/>
		</g>
		<g class="st2">
			
				<ellipse transform="matrix(0.7071 -0.7071 0.7071 0.7071 -9.1157 529.9655)" class="st6" cx="635.17" cy="275.99" rx="35.6" ry="35.6"/>
			
				<ellipse transform="matrix(0.7927 -0.6096 0.6096 0.7927 -36.5748 444.4163)" class="st7" cx="635.17" cy="275.99" rx="31.28" ry="31.28"/>
			<path class="st8" d="M607.35,264.06c4.71-3.14,10.29-4.65,15.79-5.96c2.19-0.52,8.27-1.5,8.16-4.62
				c-0.13-3.64-6.33-2.64-8.42-2.1c-3.62,0.94-7.15,2.11-10.65,3.34c-2.79,3.01-4.97,6.56-6.4,10.43
				C606.35,264.76,606.85,264.38,607.35,264.06z"/>
			<path class="st8" d="M665.48,268.3c-1.78,0.35-3.57,1.2-5.22,2.02c-6.37,3.16-12.97,5.89-19.71,8.15
				c-2.28,0.77-4.68,1.49-7.06,1.13c-1.54-0.23-2.98-0.9-4.49-1.25c-3.16-0.73-6.47-0.05-9.64,0.64c-4.95,1.07-9.94,2.15-14.67,4
				c0.35,1.53,0.81,3.02,1.37,4.44c3.22-0.94,6.5-1.69,9.82-2.25c2.52-0.42,5.68-0.74,7.98,0.66c3.5,2.13-0.7,4.02-3.02,4.63
				c-3.09,0.8-6.29,1.11-9.41,1.81c-0.68,0.15-1.59,0.37-2.55,0.66c1.65,2.56,3.66,4.85,5.95,6.81c2.42-0.54,4.83-1.14,7.22-1.8
				c3.15-0.88,6.32-1.9,8.97-3.83c3.3-2.4,5.61-6.09,9.24-7.98c2.17-1.13,4.63-1.51,7.01-2.02c6.54-1.4,12.85-3.9,18.59-7.35
				c0.2-0.12,0.4-0.24,0.6-0.37c0.02-2-0.14-4.03-0.51-6.06C665.8,269.64,665.65,268.97,665.48,268.3z"/>
			<path class="st9" d="M641.37,292.56c-1.14,1.65-1.21,3.89-2.45,5.47c-1.03,1.32-2.7,1.95-4.27,2.52
				c-3.9,1.41-7.79,2.82-11.69,4.23c5.45,2.32,11.61,3.12,17.87,1.97c12.79-2.35,22.32-12.18,24.92-24.15
				c-0.78,0.4-1.55,0.88-2.2,1.16c-5.5,2.35-11.33,3.78-17,5.66C644.59,290.07,642.53,290.87,641.37,292.56z"/>
			<path class="st10" d="M659.1,255.85c0.52,2.27,0.81,4.63,0.81,7.06c0,17.27-14,31.28-31.28,31.28c-9.6,0-18.19-4.33-23.93-11.15
				c3.2,13.87,15.62,24.22,30.47,24.22c17.27,0,31.28-14,31.28-31.28C666.45,268.32,663.68,261.3,659.1,255.85z"/>
			<path class="st11" d="M693.8,259.24c-1.6-5.62-15.76-6.85-35.16-3.94c0.74,0.79,3.71,4.15,5.31,8.39
				c5.72-0.52,9.35-0.14,9.76,1.29c0.94,3.29-15.55,10.89-36.84,16.97c-21.29,6.08-39.31,8.34-40.25,5.04
				c-0.41-1.43,2.48-3.68,7.63-6.26c-0.16-1.23-0.78-6.5,0.04-9.91c-18,7.78-29.36,16.29-27.75,21.91c2.3,8.06,30.42,7.09,62.8-2.16
				C671.72,281.33,696.1,267.3,693.8,259.24z"/>
			<path class="st12" d="M661.38,258.05c-0.15,0.02-0.29,0.08-0.41,0.16c0.37,0.52,0.75,1.1,1.12,1.72
				c7.88-1.09,20.52-1.54,22.22,1.76c0.23,0.45,0.21,0.98-0.06,1.62c-2.13,4.94-17.73,13.84-47.79,22.57
				c-34.08,9.9-48.94,6.45-50.51,3.33c-0.08-0.15-0.05-0.43,0.09-0.77c1.56-3.84,10.82-9.25,17.88-11.43
				c-0.03-0.64-0.05-1.31-0.04-1.99c-0.09,0-0.18,0.01-0.27,0.04c-8.49,2.56-17.73,8.59-19.38,12.65c-0.47,1.16-0.25,1.98-0.01,2.42
				c1.17,2.34,5.93,4.3,14.97,4.3c8.57,0,20.99-1.77,37.82-6.66c26.98-7.84,46.23-17.13,49.04-23.68c0.64-1.49,0.36-2.61,0.01-3.29
				C683.13,255.1,663.6,257.73,661.38,258.05z"/>
			<path class="st9" d="M660.56,265.78c1.16-0.62,2.32-1.27,3.4-2.02c-4.95-11.67-16.59-19.3-29.38-19.04
				c-0.34,0.23-0.67,0.46-1,0.71c-0.77,0.59-1.55,1.28-1.84,2.21c-0.76,2.41,3.05,3.53,4.26,4.97c1.77,2.1,0.64,4.37-1.45,5.62
				c-8.17,4.89-18.43,5.85-25.96,11.68c-0.37,0.29-0.74,0.6-0.97,1.01c-0.57,1.02-0.02,2.39,0.93,3.07c0.95,0.68,2.19,0.82,3.36,0.8
				c5.58-0.06,11.17-2.95,16.55-1.47c1.3,0.36,2.53,0.96,3.85,1.23c2.05,0.42,4.18,0.01,6.22-0.47
				C646.18,272.26,653.6,269.47,660.56,265.78z"/>
			<path class="st8" d="M660.62,261.09c0.53-0.23,1.09-0.49,1.61-0.8c-2.63-4.53-6.33-8.28-10.7-10.97
				c-1.79,0.45-3.56,1.22-5.25,2.03c-0.74,0.36-1.59,1-1.37,1.79c0.21,0.74,1.24,0.97,1.53,1.68c0.26,0.63-0.16,1.32-0.61,1.83
				c-2.4,2.73-6,4.01-9.39,5.31c-3.85,1.48-7.63,3.13-11.33,4.95c-0.28,0.14-0.6,0.31-0.68,0.62c-0.09,0.35,0.15,0.69,0.43,0.92
				c1.59,1.36,3.99,0.86,6.01,0.29c2.76-0.79,5.52-1.58,8.29-2.37c1.59-0.46,5.88-2.55,7.46-1.6c0.77,0.47,1.01,1.23,2.07,1.18
				c0.53-0.02,1.03-0.22,1.53-0.41C651.49,265.06,660.62,262.4,660.62,261.09z"/>
		</g>
		<path class="st13" d="M680.65,198.34c0.85,0.86,0.85,2.24,0,3.1c-0.85,0.85-2.24,0.85-3.1,0c-0.85-0.85-25.94-29.04-25.94-29.04
			S679.79,197.48,680.65,198.34z"/>
		<path class="st13" d="M718.63,39.72c0.85,0.85,0.85,2.24,0,3.1c-0.85,0.85-2.24,0.85-3.1,0c-0.85-0.86-25.94-29.04-25.94-29.04
			S717.78,38.87,718.63,39.72z"/>
		<path class="st13" d="M59.6,95.35c0.85,0.86,0.85,2.24,0,3.1c-0.85,0.85-2.24,0.85-3.1,0c-0.85-0.85-25.94-29.04-25.94-29.04
			S58.75,94.49,59.6,95.35z"/>
		<path class="st13" d="M44.76,318.37c0.85,0.85,0.85,2.24,0,3.1c-0.86,0.85-2.24,0.85-3.1,0c-0.86-0.86-25.94-29.04-25.94-29.04
			S43.91,317.52,44.76,318.37z"/>
		<g class="st2">
			<path class="st14" d="M538.62,145.65c2.77,2.77,2.77,7.27,0,10.04c-2.77,2.77-7.27,2.77-10.04,0s-32.83-42.87-32.83-42.87
				S535.84,142.87,538.62,145.65z"/>
			<path class="st15" d="M536.94,146.62c2.04,2.04,2.04,5.35,0,7.39c-2.04,2.04-5.35,2.04-7.39,0s-9.78-17.18-9.78-17.18
				S534.9,144.58,536.94,146.62z"/>
			<g>
				<path class="st16" d="M536.69,149.63L536.69,149.63c-0.08-0.04-0.13-0.12-0.15-0.2c-0.08-0.3-0.2-0.6-0.36-0.88
					c-0.04-0.08-0.06-0.16-0.04-0.25v0c0.15-0.57-0.37-1.09-0.94-0.94l0,0c-0.08,0.02-0.17,0.01-0.25-0.04
					c-0.28-0.16-0.57-0.28-0.88-0.36c-0.08-0.02-0.16-0.07-0.2-0.15l0,0c-0.29-0.51-1.03-0.51-1.32,0l0,0
					c-0.04,0.08-0.12,0.13-0.2,0.15c-0.3,0.08-0.6,0.2-0.88,0.36c-0.08,0.04-0.16,0.06-0.25,0.04l0,0
					c-0.57-0.15-1.09,0.37-0.94,0.94l0,0c0.02,0.08,0.01,0.17-0.04,0.25c-0.16,0.28-0.28,0.57-0.36,0.88
					c-0.02,0.08-0.07,0.16-0.15,0.2l0,0c-0.51,0.29-0.51,1.03,0,1.32l0,0c0.08,0.04,0.13,0.12,0.15,0.2c0.08,0.3,0.2,0.6,0.36,0.88
					c0.04,0.08,0.06,0.16,0.04,0.25l0,0c-0.15,0.57,0.37,1.09,0.94,0.94l0,0c0.08-0.02,0.17-0.01,0.25,0.04
					c0.28,0.16,0.57,0.28,0.88,0.36c0.08,0.02,0.16,0.07,0.2,0.15l0,0c0.29,0.51,1.03,0.51,1.32,0l0,0c0.04-0.08,0.12-0.13,0.2-0.15
					c0.3-0.08,0.6-0.2,0.88-0.36c0.08-0.04,0.16-0.06,0.25-0.04l0,0c0.57,0.15,1.09-0.37,0.94-0.94l0,0
					c-0.02-0.08-0.01-0.17,0.04-0.25c0.16-0.28,0.28-0.57,0.36-0.88c0.02-0.08,0.07-0.16,0.15-0.2l0,0
					C537.2,150.66,537.2,149.92,536.69,149.63z"/>
				<circle class="st17" cx="532.68" cy="149.98" r="0.8"/>
				<circle class="st17" cx="535.5" cy="150.33" r="0.8"/>
				<path class="st17" d="M531.44,148.28c0.17,0.17,0.17,0.44,0,0.61c-0.17,0.17-0.44,0.17-0.61,0c-0.17-0.17-0.17-0.44,0-0.61
					C531,148.11,531.28,148.11,531.44,148.28z"/>
				<path class="st17" d="M531.87,151.64c0.17,0.17,0.17,0.44,0,0.61c-0.17,0.17-0.44,0.17-0.61,0c-0.17-0.17-0.17-0.44,0-0.61
					C531.43,151.47,531.7,151.47,531.87,151.64z"/>
				<path class="st17" d="M534.34,151.72c0.3,0.3,0.3,0.78,0,1.08c-0.3,0.3-0.78,0.3-1.08,0c-0.3-0.3-0.3-0.78,0-1.08
					C533.56,151.42,534.04,151.42,534.34,151.72z"/>
				<path class="st17" d="M533.96,147.56c0.17,0.17,0.17,0.44,0,0.61c-0.17,0.17-0.44,0.17-0.61,0c-0.17-0.17-0.17-0.44,0-0.61
					C533.51,147.39,533.79,147.39,533.96,147.56z"/>
				<path class="st18" d="M535.21,147.37L535.21,147.37c-0.08,0.02-0.17,0.01-0.25-0.04c-0.28-0.16-0.57-0.28-0.88-0.36
					c-0.01,0-0.01,0-0.02-0.01c0.49,0.42,1.8,1.72,1.35,3.53c-0.55,2.22-2.59,2.99-3.06,3.13c0.08,0.02,0.16,0.07,0.2,0.15l0,0
					c0.29,0.51,1.03,0.51,1.32,0l0,0c0.04-0.08,0.12-0.13,0.2-0.15c0.3-0.08,0.6-0.2,0.88-0.36c0.08-0.04,0.16-0.06,0.25-0.04l0,0
					c0.57,0.15,1.09-0.37,0.94-0.94c-0.02-0.08-0.01-0.17,0.04-0.25c0.16-0.28,0.28-0.57,0.36-0.88c0.02-0.08,0.07-0.16,0.15-0.2
					l0,0c0.51-0.29,0.51-1.03,0-1.32l0,0c-0.08-0.04-0.13-0.12-0.15-0.2c-0.08-0.3-0.2-0.6-0.36-0.88
					c-0.04-0.08-0.06-0.16-0.04-0.25l0,0C536.29,147.73,535.77,147.21,535.21,147.37z"/>
			</g>
		</g>
		<g class="st2">
			<path class="st14" d="M126.74,168.12c2.77,2.77,2.77,7.27,0,10.04c-2.77,2.77-7.27,2.77-10.04,0
				c-2.77-2.77-32.83-42.87-32.83-42.87S123.97,165.35,126.74,168.12z"/>
			<path class="st15" d="M125.06,169.09c2.04,2.04,2.04,5.35,0,7.39c-2.04,2.04-5.35,2.04-7.39,0c-2.04-2.04-9.78-17.18-9.78-17.18
				S123.02,167.05,125.06,169.09z"/>
			<g>
				<path class="st16" d="M124.82,172.1L124.82,172.1c-0.08-0.04-0.13-0.12-0.15-0.2c-0.08-0.3-0.2-0.6-0.36-0.88
					c-0.04-0.08-0.06-0.16-0.04-0.25v0c0.15-0.57-0.37-1.09-0.94-0.94h0c-0.08,0.02-0.17,0.01-0.25-0.04
					c-0.28-0.16-0.57-0.28-0.88-0.36c-0.08-0.02-0.16-0.07-0.2-0.15l0,0c-0.29-0.51-1.03-0.51-1.32,0l0,0
					c-0.04,0.08-0.12,0.13-0.2,0.15c-0.3,0.08-0.6,0.2-0.88,0.36c-0.08,0.04-0.16,0.06-0.25,0.04l0,0
					c-0.57-0.15-1.09,0.37-0.94,0.94l0,0c0.02,0.08,0.01,0.17-0.04,0.25c-0.16,0.28-0.28,0.57-0.36,0.88
					c-0.02,0.08-0.07,0.16-0.15,0.2l0,0c-0.51,0.29-0.51,1.03,0,1.32l0,0c0.08,0.04,0.13,0.12,0.15,0.2c0.08,0.3,0.2,0.6,0.36,0.88
					c0.04,0.08,0.06,0.16,0.04,0.25l0,0c-0.15,0.57,0.37,1.09,0.94,0.94l0,0c0.08-0.02,0.17-0.01,0.25,0.04
					c0.28,0.16,0.57,0.28,0.88,0.36c0.08,0.02,0.16,0.07,0.2,0.15l0,0c0.29,0.51,1.03,0.51,1.32,0l0,0c0.04-0.08,0.12-0.13,0.2-0.15
					c0.3-0.08,0.6-0.2,0.88-0.36c0.08-0.04,0.16-0.06,0.25-0.04h0c0.57,0.15,1.09-0.37,0.94-0.94l0,0
					c-0.02-0.08-0.01-0.17,0.04-0.25c0.16-0.28,0.28-0.57,0.36-0.88c0.02-0.08,0.07-0.16,0.15-0.2l0,0
					C125.33,173.13,125.33,172.4,124.82,172.1z"/>
				<path class="st17" d="M121.37,171.88c0.31,0.31,0.31,0.82,0,1.14c-0.31,0.31-0.82,0.31-1.14,0c-0.31-0.31-0.31-0.82,0-1.14
					C120.55,171.57,121.06,171.57,121.37,171.88z"/>
				<circle class="st17" cx="123.62" cy="172.8" r="0.8"/>
				<path class="st17" d="M119.57,170.76c0.17,0.17,0.17,0.44,0,0.61c-0.17,0.17-0.44,0.17-0.61,0c-0.17-0.17-0.17-0.44,0-0.61
					C119.13,170.59,119.4,170.59,119.57,170.76z"/>
				<path class="st17" d="M119.99,174.11c0.17,0.17,0.17,0.44,0,0.61c-0.17,0.17-0.44,0.17-0.61,0c-0.17-0.17-0.17-0.44,0-0.61
					C119.55,173.94,119.82,173.94,119.99,174.11z"/>
				<path class="st17" d="M122.46,174.19c0.3,0.3,0.3,0.78,0,1.08c-0.3,0.3-0.78,0.3-1.08,0c-0.3-0.3-0.3-0.78,0-1.08
					C121.68,173.89,122.17,173.89,122.46,174.19z"/>
				<path class="st17" d="M122.08,170.04c0.17,0.17,0.17,0.44,0,0.61c-0.17,0.17-0.44,0.17-0.61,0c-0.17-0.17-0.17-0.44,0-0.61
					C121.64,169.87,121.91,169.87,122.08,170.04z"/>
				<path class="st18" d="M123.33,169.84L123.33,169.84c-0.08,0.02-0.17,0.01-0.25-0.04c-0.28-0.16-0.57-0.28-0.88-0.36
					c-0.01,0-0.01,0-0.02-0.01c0.49,0.42,1.8,1.72,1.35,3.53c-0.55,2.22-2.59,2.99-3.06,3.13c0.08,0.02,0.16,0.07,0.2,0.15l0,0
					c0.29,0.51,1.03,0.51,1.32,0l0,0c0.04-0.08,0.12-0.13,0.2-0.15c0.3-0.08,0.6-0.2,0.88-0.36c0.08-0.04,0.16-0.06,0.25-0.04h0
					c0.57,0.15,1.09-0.37,0.94-0.94c-0.02-0.08-0.01-0.17,0.04-0.25c0.16-0.28,0.28-0.57,0.36-0.88c0.02-0.08,0.07-0.16,0.15-0.2
					l0,0c0.51-0.29,0.51-1.03,0-1.32l0,0c-0.08-0.04-0.13-0.12-0.15-0.2c-0.08-0.3-0.2-0.6-0.36-0.88
					c-0.04-0.08-0.06-0.16-0.04-0.25l0,0C124.42,170.21,123.9,169.69,123.33,169.84z"/>
			</g>
		</g>
		<g class="st2">
			<path class="st14" d="M251.88,59.76c2.66,2.66,2.66,6.96,0,9.62c-2.66,2.66-6.96,2.66-9.62,0c-2.66-2.66-28.87-38.49-28.87-38.49
				S249.22,57.11,251.88,59.76z"/>
			<path class="st15" d="M250.27,60.69c1.96,1.96,1.96,5.13,0,7.08s-5.13,1.96-7.08,0c-1.96-1.96-9.37-16.45-9.37-16.45
				S248.32,58.74,250.27,60.69z"/>
			<g>
				<path class="st16" d="M250.04,63.58L250.04,63.58c-0.07-0.04-0.12-0.11-0.15-0.19c-0.08-0.29-0.19-0.57-0.35-0.84
					c-0.04-0.07-0.06-0.16-0.03-0.24l0,0c0.15-0.54-0.35-1.04-0.9-0.9l0,0c-0.08,0.02-0.17,0.01-0.24-0.03
					c-0.27-0.16-0.55-0.27-0.84-0.35c-0.08-0.02-0.15-0.07-0.19-0.14l0,0c-0.28-0.49-0.99-0.49-1.27,0l0,0
					c-0.04,0.07-0.11,0.12-0.19,0.14c-0.29,0.08-0.57,0.19-0.84,0.35c-0.07,0.04-0.16,0.06-0.24,0.03l0,0
					c-0.54-0.15-1.04,0.35-0.9,0.9l0,0c0.02,0.08,0.01,0.17-0.03,0.24c-0.16,0.27-0.27,0.55-0.35,0.84
					c-0.02,0.08-0.07,0.15-0.14,0.19l0,0c-0.49,0.28-0.49,0.99,0,1.27l0,0c0.07,0.04,0.12,0.11,0.14,0.19
					c0.08,0.29,0.19,0.57,0.35,0.84c0.04,0.07,0.06,0.16,0.03,0.24l0,0c-0.15,0.54,0.35,1.04,0.9,0.9h0
					c0.08-0.02,0.17-0.01,0.24,0.03c0.27,0.16,0.55,0.27,0.84,0.35c0.08,0.02,0.15,0.07,0.19,0.14l0,0c0.28,0.49,0.99,0.49,1.27,0
					l0,0c0.04-0.07,0.11-0.12,0.19-0.14c0.29-0.08,0.57-0.19,0.84-0.35c0.07-0.04,0.16-0.06,0.24-0.03l0,0
					c0.54,0.15,1.04-0.35,0.9-0.9l0,0c-0.02-0.08-0.01-0.17,0.03-0.24c0.16-0.27,0.27-0.55,0.35-0.84c0.02-0.08,0.07-0.15,0.14-0.19
					l0,0C250.52,64.56,250.52,63.86,250.04,63.58z"/>
				<path class="st17" d="M246.74,63.37c0.3,0.3,0.3,0.79,0,1.09c-0.3,0.3-0.79,0.3-1.09,0c-0.3-0.3-0.3-0.79,0-1.09
					C245.95,63.06,246.44,63.06,246.74,63.37z"/>
				<circle class="st17" cx="248.89" cy="64.24" r="0.77"/>
				<circle class="st17" cx="244.72" cy="62.58" r="0.41"/>
				<path class="st17" d="M245.42,65.5c0.16,0.16,0.16,0.42,0,0.59c-0.16,0.16-0.42,0.16-0.59,0c-0.16-0.16-0.16-0.42,0-0.59
					C244.99,65.34,245.26,65.34,245.42,65.5z"/>
				<path class="st17" d="M247.78,65.58c0.29,0.29,0.29,0.75,0,1.04c-0.29,0.29-0.75,0.29-1.04,0c-0.29-0.29-0.29-0.75,0-1.04
					C247.03,65.29,247.5,65.29,247.78,65.58z"/>
				<path class="st17" d="M247.42,61.6c0.16,0.16,0.16,0.42,0,0.59c-0.16,0.16-0.42,0.16-0.59,0c-0.16-0.16-0.16-0.42,0-0.59
					C246.99,61.44,247.25,61.44,247.42,61.6z"/>
				<path class="st18" d="M248.61,61.41L248.61,61.41c-0.08,0.02-0.17,0.01-0.24-0.03c-0.27-0.16-0.55-0.27-0.84-0.35
					c-0.01,0-0.01,0-0.02-0.01c0.47,0.4,1.72,1.64,1.29,3.38c-0.53,2.13-2.48,2.86-2.93,2.99c0.08,0.02,0.15,0.07,0.19,0.14l0,0
					c0.28,0.49,0.99,0.49,1.27,0l0,0c0.04-0.07,0.11-0.12,0.19-0.14c0.29-0.08,0.57-0.19,0.84-0.35c0.07-0.04,0.16-0.06,0.24-0.03
					l0,0c0.54,0.15,1.04-0.35,0.9-0.9c-0.02-0.08-0.01-0.17,0.03-0.24c0.16-0.27,0.27-0.55,0.35-0.84c0.02-0.08,0.07-0.15,0.14-0.19
					l0,0c0.49-0.28,0.49-0.99,0-1.27l0,0c-0.07-0.04-0.12-0.11-0.14-0.19c-0.08-0.29-0.19-0.57-0.35-0.84
					c-0.04-0.07-0.06-0.16-0.03-0.24l0,0C249.66,61.76,249.16,61.26,248.61,61.41z"/>
			</g>
		</g>
		<g class="st2">
			<path class="st14" d="M337.31,143.94c2.39,2.39,2.39,6.26,0,8.64c-2.39,2.39-6.26,2.39-8.64,0
				c-2.39-2.39-25.95-34.59-25.95-34.59S334.92,141.55,337.31,143.94z"/>
			<path class="st15" d="M335.87,144.77c1.76,1.76,1.76,4.61,0,6.36c-1.76,1.76-4.61,1.76-6.36,0c-1.76-1.76-8.42-14.78-8.42-14.78
				S334.11,143.02,335.87,144.77z"/>
			<g>
				<path class="st16" d="M335.65,147.36L335.65,147.36c-0.07-0.04-0.11-0.1-0.13-0.17c-0.07-0.26-0.17-0.52-0.31-0.76
					c-0.04-0.06-0.05-0.14-0.03-0.21l0,0c0.13-0.49-0.32-0.94-0.81-0.81l0,0c-0.07,0.02-0.15,0.01-0.21-0.03
					c-0.24-0.14-0.49-0.24-0.76-0.31c-0.07-0.02-0.14-0.06-0.17-0.13l0,0c-0.25-0.44-0.89-0.44-1.14,0l0,0
					c-0.04,0.07-0.1,0.11-0.17,0.13c-0.26,0.07-0.52,0.17-0.76,0.31c-0.06,0.04-0.14,0.05-0.21,0.03l0,0
					c-0.49-0.13-0.94,0.32-0.81,0.81l0,0c0.02,0.07,0.01,0.15-0.03,0.21c-0.14,0.24-0.24,0.49-0.31,0.76
					c-0.02,0.07-0.06,0.14-0.13,0.17l0,0c-0.44,0.25-0.44,0.89,0,1.14l0,0c0.07,0.04,0.11,0.1,0.13,0.17
					c0.07,0.26,0.17,0.52,0.31,0.76c0.04,0.06,0.05,0.14,0.03,0.21l0,0c-0.13,0.49,0.32,0.94,0.81,0.81l0,0
					c0.07-0.02,0.15-0.01,0.21,0.03c0.24,0.14,0.49,0.24,0.76,0.31c0.07,0.02,0.14,0.06,0.17,0.13l0,0c0.25,0.44,0.89,0.44,1.14,0
					l0,0c0.04-0.07,0.1-0.11,0.17-0.13c0.26-0.07,0.52-0.17,0.76-0.31c0.06-0.04,0.14-0.05,0.21-0.03l0,0
					c0.49,0.13,0.94-0.32,0.81-0.81l0,0c-0.02-0.07-0.01-0.15,0.03-0.21c0.14-0.24,0.24-0.49,0.31-0.76
					c0.02-0.07,0.06-0.14,0.13-0.17l0,0C336.09,148.25,336.09,147.62,335.65,147.36z"/>
				<circle class="st17" cx="332.2" cy="147.66" r="0.69"/>
				<circle class="st17" cx="334.63" cy="147.96" r="0.69"/>
				<circle class="st17" cx="330.88" cy="146.47" r="0.37"/>
				<path class="st17" d="M331.5,149.09c0.15,0.15,0.15,0.38,0,0.53c-0.15,0.15-0.38,0.15-0.53,0s-0.15-0.38,0-0.53
					C331.12,148.95,331.36,148.95,331.5,149.09z"/>
				<path class="st17" d="M333.63,149.16c0.26,0.26,0.26,0.67,0,0.93c-0.26,0.26-0.67,0.26-0.93,0c-0.26-0.26-0.26-0.67,0-0.93
					C332.96,148.9,333.37,148.9,333.63,149.16z"/>
				<circle class="st17" cx="333.04" cy="145.85" r="0.37"/>
				<path class="st18" d="M334.38,145.42L334.38,145.42c-0.07,0.02-0.15,0.01-0.21-0.03c-0.24-0.14-0.49-0.24-0.76-0.31
					c-0.01,0-0.01,0-0.02-0.01c0.43,0.36,1.55,1.48,1.16,3.04c-0.47,1.91-2.23,2.57-2.63,2.69c0.07,0.02,0.14,0.06,0.17,0.13l0,0
					c0.25,0.44,0.89,0.44,1.14,0l0,0c0.04-0.07,0.1-0.11,0.17-0.13c0.26-0.07,0.52-0.17,0.76-0.31c0.06-0.04,0.14-0.05,0.21-0.03
					l0,0c0.49,0.13,0.94-0.32,0.81-0.81c-0.02-0.07-0.01-0.15,0.03-0.21c0.14-0.24,0.24-0.49,0.31-0.76
					c0.02-0.07,0.06-0.14,0.13-0.17l0,0c0.44-0.25,0.44-0.89,0-1.14l0,0c-0.07-0.04-0.11-0.1-0.13-0.17
					c-0.07-0.26-0.17-0.52-0.31-0.76c-0.04-0.06-0.05-0.14-0.03-0.21l0,0C335.31,145.73,334.86,145.29,334.38,145.42z"/>
			</g>
		</g>
		<g class="st2">
			<g>
				<circle class="st19" cx="105.59" cy="244.21" r="20.72"/>
				<path class="st20" d="M118.55,236.47c0,3.11-2.52,5.62-5.62,5.62c-3.11,0-5.62-2.52-5.62-5.62s2.52-5.62,5.62-5.62
					C116.04,230.84,118.55,233.36,118.55,236.47z"/>
				<circle class="st20" cx="95.22" cy="246.71" r="1.9"/>
				<path class="st20" d="M120.46,246.11c0,1.05-0.85,1.9-1.9,1.9c-1.05,0-1.9-0.85-1.9-1.9s0.85-1.9,1.9-1.9
					C119.6,244.21,120.46,245.06,120.46,246.11z"/>
				<path class="st20" d="M99.03,256.47c0,1.05-0.85,1.9-1.9,1.9c-1.05,0-1.9-0.85-1.9-1.9c0-1.05,0.85-1.9,1.9-1.9
					C98.18,254.57,99.03,255.42,99.03,256.47z"/>
				<path class="st20" d="M109.78,252.05c0,1.9-1.54,3.44-3.44,3.44c-1.9,0-3.44-1.54-3.44-3.44s1.54-3.44,3.44-3.44
					C108.24,248.61,109.78,250.15,109.78,252.05z"/>
				<path class="st20" d="M102.91,233.03c0,1.9-1.54,3.44-3.44,3.44s-3.44-1.54-3.44-3.44c0-1.9,1.54-3.44,3.44-3.44
					S102.91,231.13,102.91,233.03z"/>
				<g>
					<path class="st20" d="M88.09,233.13c-1.98,3.12-3.15,6.81-3.21,10.77c0.49,0.14,1,0.22,1.53,0.22c3.11,0,5.62-2.52,5.62-5.62
						C92.03,235.97,90.37,233.84,88.09,233.13z"/>
					<path class="st20" d="M112.92,224.83c-2.28-0.86-4.75-1.34-7.33-1.34c-0.42,0-0.84,0.02-1.26,0.04
						c-0.11,0.38-0.17,0.78-0.17,1.2c0,2.42,1.96,4.38,4.38,4.38C110.93,229.11,112.87,227.2,112.92,224.83z"/>
					<path class="st20" d="M123.94,253.82c-0.98-1.49-2.67-2.48-4.59-2.48c-3.03,0-5.48,2.46-5.48,5.48c0,2.09,1.17,3.91,2.89,4.83
						C119.78,259.71,122.27,257.01,123.94,253.82z"/>
				</g>
				<path class="st20" d="M117.92,227.56c2.56,3.45,4.07,7.71,4.07,12.33c0,11.44-9.28,20.72-20.72,20.72
					c-4.62,0-8.89-1.51-12.33-4.07c3.78,5.09,9.83,8.39,16.65,8.39c11.44,0,20.72-9.28,20.72-20.72
					C126.31,237.39,123.01,231.34,117.92,227.56z"/>
			</g>
			<g>
				
					<ellipse transform="matrix(0.7071 -0.7071 0.7071 0.7071 -180.9665 207.6327)" class="st6" cx="160.15" cy="322.26" rx="63.05" ry="63.05"/>
				
					<ellipse transform="matrix(0.7071 -0.7071 0.7071 0.7071 -180.9665 207.6327)" class="st21" cx="160.15" cy="322.26" rx="54.56" ry="54.56"/>
				<path class="st22" d="M189.72,319.6c-1.96-0.84-4.15-0.93-6.28-0.94c-9.76-0.06-19.52,1.17-28.96,3.64
					c-2.65,0.69-13.08,3.19-11.12-3.1c0.89-2.87,6.53-4.24,8.97-5.11c5.57-1.98,11.77-3.47,15.8-8.15c0.56-0.65,1.08-1.38,1.24-2.22
					c0.42-2.14-1.65-4.11-3.8-4.47c-2.15-0.36-4.32,0.39-6.41,1c-5.03,1.47-10.28,2.19-15.52,2.13c-2.24-0.02-5.12-0.76-5.33-2.99
					c-0.31-3.22,5.44-4.74,4.78-7.91c-0.46-2.23-3.53-2.46-5.79-2.12c-7.13,1.07-15.58,2.21-23.56,4.23
					c-5.16,8.33-8.15,18.16-8.15,28.68c0,12.44,4.17,23.91,11.19,33.09c5.16-1.05,10.07-3.19,14.99-5.13
					c7.29-2.87,14.75-5.32,22.33-7.32c11.79-3.11,24.15-5.25,34.51-11.68c2.53-1.57,5.18-3.92,4.94-6.89
					C193.38,322.2,191.68,320.44,189.72,319.6z"/>
				<path class="st23" d="M105.83,317.23c1.18,1.3,2.62,2.39,4.02,3.46c2.1,1.6,4.25,3.33,5.34,5.73c0.57,1.26,0.84,2.68,1.65,3.8
					c0.81,1.12,2.49,1.83,3.59,1c1-0.76,0.95-2.33,0.36-3.44c-0.59-1.11-1.57-1.95-2.27-2.99c-1.72-2.58-1.44-6.1-0.1-8.89
					c1.35-2.79,3.61-5.03,5.82-7.2c7.04-6.9,14.67-14.13,24.35-15.98c1.72-0.33,4.07-1.39,3.41-3.02c-0.23-0.57-0.8-0.92-1.33-1.23
					c-2.14-1.25-4.27-2.51-6.41-3.76c1.15-1.45,3.19-1.72,4.95-2.31c1.75-0.59,3.61-2.17,3.08-3.95c-0.64-2.16-3.74-1.98-5.9-1.33
					c1.15-0.97,0.38-3.06-1.01-3.64c-1.39-0.59-2.98-0.17-4.43,0.29c-1.44,0.45-3,0.92-4.43,0.43c-0.39-0.13-0.73-0.34-1.06-0.57
					C119.16,281.9,107.58,298.14,105.83,317.23z"/>
				<path class="st23" d="M155.62,348.95c-0.28-2.17,2.09-3.69,2.85-5.74c0.78-2.11-0.36-4.57-2.18-5.88
					c-1.82-1.31-4.16-1.68-6.41-1.71c-2.01-0.02-4.36,0.07-5.64-1.48c-0.61-0.74-0.85-1.72-1.45-2.46
					c-1.79-2.21-5.74-1.55-8.22-2.15c-2.85-0.69-4.9-2.46-7.63-0.76c-2.15,1.35-3.17,3.87-5.32,5.23c-2.07,1.32-4.74,0.99-5.98,3.35
					c-4.97,9.47,9.34,14.64,12.91,20.31c1.14,1.81,1.23,4.08,2.09,6.03c1.21,2.74,3.71,4.43,6.04,6.15
					c1.53,1.12,2.46,2.02,3.17,3.06c1.66,0.67,3.37,1.25,5.11,1.76c-0.09-0.23-0.16-0.46-0.2-0.67c-0.51-3.03,1.71-5.87,4.24-7.62
					c2.52-1.75,5.49-2.87,7.74-4.95c2.26-2.08,3.63-5.67,1.95-8.23C157.73,351.71,155.85,350.71,155.62,348.95z"/>
				<g>
					<path class="st23" d="M212.79,330.28c-1.54-0.37-3.17-0.37-4.68-0.86c-3.85-1.26-5.95-5.26-8.85-8.08
						c-1.2-1.16-2.94-2.19-4.45-1.5c-1.53,0.7-1.86,2.67-2.19,4.33c-0.32,1.65-1.27,3.61-2.96,3.56c-0.91-0.03-1.68-0.66-2.56-0.89
						c-2.72-0.71-4.83,2.65-4.81,5.45c0.04,5.53,0.87,8.01-2.3,12.86c-1.93,2.95-4,6.04-2.97,9.68c2.68,9.47,12.25,8.28,17.73,2.24
						c3.33-3.67,6.15-8.29,10.83-9.92c1.11-0.39,2.27-0.58,3.44-0.68c2.43-4.9,4.16-10.21,5.03-15.81
						C213.65,330.52,213.23,330.39,212.79,330.28z"/>
					<path class="st23" d="M164.39,273.61c-1.76,0.85-0.7,3.77,1.12,4.48c1.82,0.71,3.92,0.3,5.77,0.91
						c4.17,1.37,5.1,7.03,3.85,11.24c-1.25,4.21-3.91,8.03-4.25,12.41c-0.07,0.94-0.03,1.92,0.41,2.75c1.33,2.5,5.23,2.01,7.4,0.19
						c2.17-1.82,3.55-4.51,5.91-6.07c0.44-0.29,0.92-0.54,1.45-0.53c2.94,0.04,1.7,6.62,4.64,6.57c1.5-0.03,2.11-1.99,3.4-2.75
						c1.77-1.05,4,0.53,5.01,2.32c1.01,1.79,1.55,3.96,3.17,5.23c2.91,2.28,7.57-0.14,8.73-3.65c0.33-1.01,0.46-2.05,0.43-3.09
						c-7.48-20.55-26.95-35.33-49.96-35.88c-0.22,0.3-0.4,0.62-0.51,0.96C160.46,270.31,161.82,274.85,164.39,273.61z"/>
				</g>
				<path class="st24" d="M201.9,287.15c0.91,3.96,1.41,8.07,1.41,12.31c0,30.13-24.43,54.56-54.56,54.56
					c-16.75,0-31.74-7.56-41.75-19.44c5.58,24.2,27.25,42.25,53.15,42.25c30.13,0,54.56-24.43,54.56-54.56
					C214.71,308.88,209.89,296.64,201.9,287.15z"/>
			</g>
		</g>
		<g class="st2">
			<circle class="st25" cx="662.23" cy="75.81" r="35.84"/>
			
				<ellipse transform="matrix(0.9925 -0.1222 0.1222 0.9925 -4.3006 81.4814)" class="st26" cx="662.23" cy="75.81" rx="30.67" ry="30.67"/>
			<path class="st27" d="M688.15,78.87c-2.61,2.36-4.73,5.1-6.85,7.6c-1.06,1.24-2.12,2.46-3.22,3.53c-1.1,1.06-2.27,2.03-3.53,2.87
				c-2.5,1.7-5.3,2.94-8.22,3.58c-1.45,0.32-2.92,0.52-4.41,0.53c-0.74,0.05-1.49-0.04-2.24-0.06c-0.75-0.1-1.51-0.14-2.26-0.3
				c-3.02-0.51-6.07-1.54-9.16-2.7c-3.1-1.16-6.22-2.41-9.47-3.48c-1.31-0.42-2.66-0.79-4.04-1.04c0.51,1.03,1.07,2.02,1.69,2.98
				c0.43,0.21,0.85,0.43,1.28,0.64c2.92,1.54,5.84,3.18,8.88,4.71c1.54,0.74,3.09,1.5,4.74,2.13c0.81,0.33,1.66,0.61,2.5,0.9
				c0.86,0.25,1.72,0.51,2.61,0.7c0.88,0.22,1.79,0.35,2.7,0.49c0.92,0.07,1.84,0.19,2.78,0.17c1.86,0.06,3.74-0.19,5.55-0.57
				c3.64-0.78,7.05-2.38,10.01-4.57c1.48-1.1,2.83-2.34,4.05-3.71c1.21-1.37,2.24-2.77,3.21-4.2c1.93-2.83,3.59-5.66,5.56-8.21
				c0.83-1.08,1.69-2.15,2.55-3.22c0.04-0.61,0.06-1.22,0.06-1.84c0-0.28-0.01-0.56-0.02-0.84c-0.27,0.21-0.55,0.41-0.82,0.62
				C690.72,76.63,689.42,77.73,688.15,78.87z"/>
			<path class="st28" d="M640.82,78.31c-3.29,1.7-6.42,2.07-8.93,1.93c0.32,2.24,0.89,4.4,1.68,6.46c6.04,1.16,11.88,3.26,17.9,4.55
				c7.71,1.65,15.08,0.69,21.96-3.33c2.39-1.4,4.6-3.1,6.54-5.08c4.03-4.1,8.33-7.77,12.48-11.75c0.03-0.03,0.06-0.06,0.09-0.08
				c-0.16-1.02-0.37-2.02-0.63-3.01c-4.21,1.42-10.13,2.44-17.4,1.14C659.16,66.4,648.48,74.34,640.82,78.31z M672.49,82.41
				c-5.16,3.44-10.43,4.05-16.42,3.05c-2.14-0.35-11.44-2.09-6.93-5.64c2.98-2.34,6.4-4.09,10.02-5.21
				c1.05-0.32,2.11-0.59,3.18-0.81c4.14-0.83,10.18-1.55,13.93,0.8C679.87,76.88,674.31,81.2,672.49,82.41z"/>
			<path class="st27" d="M631.56,75.95c1.93,0.02,3.87-0.15,5.77-0.51c8.15-1.54,15.01-6.61,22.63-9.58
				c2.39-0.93,0.82-2.31-0.71-3.07c-2.28-1.13-4.93-1.63-7.45-1.93c-5.46-0.65-11.59-0.22-17.12,1.46
				c-1.99,4.07-3.12,8.64-3.12,13.48C631.56,75.85,631.56,75.9,631.56,75.95z"/>
			<path class="st28" d="M662.23,45.14c-8.81,0-16.74,3.72-22.34,9.67c7.25,0.3,17.28,1.22,24.5,3.87
				c8.75,3.21,17.56,1.64,22.88-0.56C681.71,50.26,672.57,45.14,662.23,45.14z"/>
			<path class="st29" d="M680.43,51.12c4.05,5.06,6.48,11.47,6.48,18.46c0,16.33-13.24,29.57-29.57,29.57
				c-9.54,0-18.01-4.52-23.42-11.53c4.63,11.07,15.56,18.86,28.31,18.86c16.94,0,30.67-13.73,30.67-30.67
				C692.9,65.68,688,56.71,680.43,51.12z"/>
			
				<ellipse transform="matrix(0.8287 -0.5598 0.5598 0.8287 76.1376 376.1483)" class="st6" cx="652.49" cy="63.71" rx="17.98" ry="13.57"/>
		</g>
		<g class="st2">
			<path class="st30" d="M778.34,574.97c-9.91-138.58-185.69-248.95-401.1-248.95c-215.41,0-391.19,110.37-401.1,248.95H778.34z"/>
			<path class="st31" d="M357.91,412.21c123.84,13.13,204.92-14.12,250.5-38.57c-17.51-8.04-36.06-15.18-55.48-21.34
				c-145.42,39.75-307.04,25.28-388.76,13.5c-27.79,11.34-53.29,24.84-75.95,40.13C161.2,403.88,311.88,408.69,357.91,412.21z"/>
			<path class="st31" d="M135.54,514.9c16.96-3.07,34.21-5.49,51.65-7.33c17.49-1.76,35.22-3.23,53.15-4.24
				c35.83-2.13,72.36-3.2,109.31-5.07c36.96-1.93,74.39-4.64,111.78-10.4c18.7-2.76,37.31-6.59,55.68-10.89l13.74-3.45
				c2.29-0.55,4.56-1.2,6.83-1.84l6.81-1.93c9.1-2.45,18.04-5.45,27.02-8.26c37.28-12.38,73.35-27.94,107.71-46.4
				c-9.31-6.91-19.18-13.5-29.55-19.73c-28.99,11.72-58.75,21.31-88.94,28.68c-8.66,1.94-17.26,4.09-25.97,5.68l-6.51,1.29
				c-2.17,0.43-4.34,0.87-6.52,1.2l-13.08,2.17c-17.49,2.62-34.96,4.77-52.59,5.91c-35.23,2.53-70.94,2.25-107.02,1.2
				c-36.12-1.1-72.66-3.01-109.9-3.82c-18.6-0.46-37.39-0.45-56.37-0.08c-19.03,0.45-38.17,1.55-57.41,3.43
				c-32.57,3.23-65.49,8.83-98.14,18.16c-29.88,34.49-48.08,73.84-51.07,115.78h4.62c17.55-12.6,37.06-23.3,57.92-32.14
				C68.83,530.04,101.64,521.05,135.54,514.9z"/>
			<g>
				
					<ellipse transform="matrix(0.9631 -0.269 0.269 0.9631 -103.0465 64.3847)" class="st32" cx="183.43" cy="408.24" rx="63.13" ry="24.26"/>
				<path class="st6" d="M176.91,384.87c33.58-9.38,63.72-6.52,67.33,6.39c0.06,0.23,0.1,0.46,0.14,0.69
					c-0.05-0.62-0.14-1.24-0.3-1.84c-3.6-12.91-33.75-15.77-67.33-6.39c-32.99,9.21-57,26.81-54.42,39.66
					C121.33,410.64,144.89,393.81,176.91,384.87z"/>
				<path class="st33" d="M244.23,391.26c-3.6-12.91-33.75-15.77-67.33-6.39c-33.58,9.38-57.88,27.44-54.27,40.35
					c0.38,1.37,1.09,2.63,2.04,3.77c8.43-10.03,26.92-20.37,49.67-26.73c30-8.38,57.25-6.98,65.28,2.62
					C243.65,400.11,245.4,395.42,244.23,391.26z"/>
				<path class="st34" d="M178.5,390.56c31.07-8.68,59.18-6.87,66.07,3.67c0.03-1.02-0.06-2.01-0.33-2.98
					c-3.6-12.91-33.75-15.77-67.33-6.39c-33.58,9.38-57.88,27.44-54.27,40.35c0.27,0.96,0.7,1.86,1.26,2.72
					C124.32,415.35,147.43,399.24,178.5,390.56z"/>
			</g>
			<g>
				
					<ellipse transform="matrix(0.9631 -0.269 0.269 0.9631 -131.0269 38.5342)" class="st32" cx="75.11" cy="497.42" rx="53.72" ry="20.65"/>
				<path class="st6" d="M69.55,477.53c28.57-7.98,54.23-5.55,57.29,5.44c0.05,0.19,0.08,0.39,0.12,0.58
					c-0.04-0.53-0.12-1.05-0.26-1.56c-3.07-10.98-28.72-13.42-57.29-5.44c-28.07,7.84-48.51,22.81-46.31,33.75
					C22.26,499.47,42.31,485.14,69.55,477.53z"/>
				<path class="st33" d="M126.85,482.97c-3.07-10.98-28.72-13.42-57.29-5.44c-28.58,7.98-49.25,23.35-46.19,34.34
					c0.33,1.17,0.92,2.24,1.74,3.21c7.18-8.53,22.91-17.34,42.27-22.74c25.53-7.13,48.72-5.94,55.56,2.23
					C126.35,490.51,127.84,486.51,126.85,482.97z"/>
				<path class="st34" d="M70.91,482.38c26.44-7.38,50.36-5.84,56.22,3.13c0.03-0.86-0.05-1.71-0.28-2.53
					c-3.07-10.98-28.72-13.42-57.29-5.44c-28.57,7.98-49.25,23.35-46.19,34.34c0.23,0.82,0.6,1.59,1.07,2.31
					C24.8,503.47,44.47,489.76,70.91,482.38z"/>
			</g>
			<g>
				
					<ellipse transform="matrix(0.9674 -0.2532 0.2532 0.9674 -113.681 61.8122)" class="st32" cx="183.28" cy="472.52" rx="24.17" ry="9.29"/>
				<path class="st6" d="M180.93,463.54c12.91-3.38,24.43-2.1,25.73,2.87c0.02,0.09,0.03,0.18,0.05,0.26
					c-0.01-0.24-0.04-0.47-0.1-0.71c-1.3-4.96-12.82-6.25-25.73-2.87c-12.69,3.32-21.99,9.91-21.08,14.84
					C159.49,473.06,168.62,466.76,180.93,463.54z"/>
				<path class="st33" d="M206.66,466.4c-1.3-4.96-12.82-6.25-25.73-2.87c-12.91,3.38-22.33,10.14-21.03,15.11
					c0.14,0.53,0.4,1.01,0.76,1.46c3.29-3.79,10.43-7.63,19.18-9.92c11.54-3.02,21.96-2.31,24.97,1.41
					C206.38,469.79,207.08,468,206.66,466.4z"/>
				<path class="st34" d="M181.5,465.73c11.95-3.13,22.7-2.26,25.27,1.82c0.02-0.39-0.01-0.77-0.11-1.14
					c-1.3-4.96-12.82-6.25-25.73-2.87c-12.91,3.38-22.33,10.14-21.03,15.11c0.1,0.37,0.26,0.72,0.47,1.05
					C160.61,474.88,169.55,468.85,181.5,465.73z"/>
			</g>
			<g>
				
					<ellipse transform="matrix(0.2243 -0.9745 0.9745 0.2243 47.2858 806.1029)" class="st32" cx="529.99" cy="373.35" rx="16.06" ry="41.79"/>
				<path class="st6" d="M533.59,357.7c-22.49-5.18-42.34-2.36-44.33,6.28c-0.03,0.15-0.05,0.31-0.07,0.46
					c0.01-0.41,0.05-0.82,0.15-1.22c1.99-8.65,21.84-11.46,44.33-6.28c22.1,5.09,38.52,15.99,37.2,24.57
					C571.13,373.04,555.03,362.63,533.59,357.7z"/>
				<path class="st33" d="M489.26,363.98c1.99-8.65,21.84-11.46,44.33-6.28c22.49,5.18,39.11,16.38,37.12,25.03
					c-0.21,0.92-0.64,1.77-1.24,2.56c-5.88-6.37-18.42-12.65-33.67-16.16c-20.1-4.63-38.07-2.87-43.09,3.73
					C489.92,369.81,488.62,366.76,489.26,363.98z"/>
				<path class="st34" d="M532.71,361.51c-20.81-4.79-39.35-2.74-43.58,4.45c-0.05-0.67-0.02-1.33,0.13-1.98
					c1.99-8.65,21.84-11.46,44.33-6.28c22.49,5.18,39.11,16.38,37.12,25.03c-0.15,0.65-0.41,1.25-0.75,1.83
					C569.3,376.25,553.52,366.3,532.71,361.51z"/>
			</g>
			<g>
				
					<ellipse transform="matrix(0.3007 -0.9537 0.9537 0.3007 45.2273 892.9255)" class="st32" cx="631.53" cy="415.62" rx="12.3" ry="32.01"/>
				<path class="st6" d="M635.23,403.89c-16.86-5.32-32.18-4.37-34.23,2.11c-0.04,0.11-0.06,0.23-0.08,0.35
					c0.04-0.31,0.09-0.62,0.18-0.93c2.04-6.48,17.37-7.42,34.23-2.11c16.56,5.22,28.44,14.54,26.91,21.01
					C662.96,417.88,651.31,408.96,635.23,403.89z"/>
				<path class="st33" d="M601,405.99c2.04-6.48,17.37-7.42,34.23-2.11c16.86,5.32,28.87,14.88,26.83,21.36
					c-0.22,0.69-0.59,1.31-1.1,1.88c-4.11-5.22-13.3-10.78-24.72-14.38c-15.06-4.75-28.89-4.5-33.13,0.23
					C601.15,410.49,600.34,408.08,601,405.99z"/>
				<path class="st34" d="M634.33,406.74c-15.6-4.92-29.88-4.47-33.54,0.75c0-0.52,0.06-1.02,0.22-1.5
					c2.04-6.48,17.37-7.42,34.23-2.11c16.86,5.32,28.87,14.88,26.83,21.36c-0.15,0.48-0.39,0.93-0.68,1.36
					C661.37,420.22,649.93,411.66,634.33,406.74z"/>
			</g>
			<g>
				<path class="st32" d="M531.92,419.64c-1.03,3.52,5.55,8.53,14.7,11.2c9.15,2.67,17.39,1.99,18.42-1.53
					c1.03-3.52-5.55-8.53-14.7-11.2C541.19,415.44,532.95,416.13,531.92,419.64z"/>
				<path class="st6" d="M550.34,418.11c-9.15-2.67-17.39-1.99-18.42,1.53c-0.02,0.06-0.03,0.12-0.04,0.19
					c0.02-0.17,0.04-0.34,0.09-0.5c1.03-3.52,9.27-4.2,18.42-1.53c8.99,2.62,15.49,7.51,14.74,11.01
					C565.44,425.34,559.06,420.66,550.34,418.11z"/>
				<path class="st33" d="M531.92,419.64c1.03-3.52,9.27-4.2,18.42-1.53c9.15,2.67,15.73,7.69,14.7,11.2
					c-0.11,0.37-0.31,0.71-0.57,1.02c-2.27-2.77-7.29-5.65-13.49-7.46c-8.17-2.39-15.62-2.09-17.85,0.5
					C532.05,422.06,531.59,420.77,531.92,419.64z"/>
				<path class="st34" d="M549.88,419.66c-8.46-2.47-16.15-2.07-18.07,0.79c-0.01-0.28,0.02-0.55,0.1-0.81
					c1.03-3.52,9.27-4.2,18.42-1.53c9.15,2.67,15.73,7.69,14.7,11.2c-0.08,0.26-0.2,0.51-0.35,0.74
					C564.61,426.61,558.35,422.13,549.88,419.66z"/>
			</g>
			<g>
				
					<ellipse transform="matrix(0.2775 -0.9607 0.9607 0.2775 -3.4089 968.6555)" class="st32" cx="642.31" cy="486.59" rx="33.89" ry="76.59"/>
				<path class="st6" d="M648.85,453.24c-40.81-11.03-76.82-5.04-80.43,13.39c-0.06,0.32-0.09,0.65-0.13,0.98
					c0.02-0.88,0.09-1.75,0.26-2.61c3.61-18.42,39.62-24.42,80.43-13.39c40.09,10.84,69.88,34.07,67.49,52.35
					C716.96,485.94,687.76,463.75,648.85,453.24z"/>
				<path class="st33" d="M568.42,466.62c3.61-18.42,39.62-24.42,80.43-13.39c40.81,11.03,70.96,34.91,67.35,53.33
					c-0.38,1.96-1.16,3.77-2.24,5.45c-10.68-13.58-33.42-26.96-61.08-34.43c-36.46-9.86-69.07-6.11-78.18,7.94
					C569.62,479.06,567.26,472.56,568.42,466.62z"/>
				<path class="st34" d="M647.25,461.36c-37.76-10.21-71.39-5.83-79.07,9.48c-0.1-1.43-0.04-2.84,0.23-4.21
					c3.61-18.42,39.62-24.42,80.43-13.39c40.81,11.03,70.96,34.91,67.35,53.33c-0.27,1.38-0.74,2.67-1.36,3.91
					C713.63,492.77,685.01,471.57,647.25,461.36z"/>
			</g>
			<g>
				<ellipse class="st32" cx="416.23" cy="430.93" rx="84.59" ry="41.37"/>
				<path class="st33" d="M416.23,409.11c40.87,0,74.5,16.19,78.71,36.96c3.78-4.69,5.87-9.8,5.87-15.14
					c0-22.85-37.87-41.37-84.59-41.37c-46.72,0-84.59,18.52-84.59,41.37c0,5.35,2.1,10.45,5.87,15.14
					C341.72,425.3,375.35,409.11,416.23,409.11z"/>
				<path class="st34" d="M416.23,397.41c44.01,0,80.15,16.44,84.2,37.45c0.25-1.29,0.39-2.6,0.39-3.93
					c0-22.85-37.87-41.37-84.59-41.37c-46.72,0-84.59,18.52-84.59,41.37c0,1.32,0.14,2.63,0.39,3.93
					C336.07,413.85,372.22,397.41,416.23,397.41z"/>
				<path class="st6" d="M416.23,389.56c46.05,0,83.48,18,84.54,40.4c0.02-0.32,0.05-0.65,0.05-0.97
					c0-22.85-37.87-41.37-84.59-41.37c-46.72,0-84.59,18.52-84.59,41.37c0,0.33,0.03,0.65,0.05,0.97
					C332.75,407.56,370.18,389.56,416.23,389.56z"/>
			</g>
			<g>
				
					<ellipse transform="matrix(0.9992 -0.0389 0.0389 0.9992 -13.3718 13.6284)" class="st32" cx="343.74" cy="350.65" rx="43.27" ry="14.16"/>
				<path class="st33" d="M343.45,343.18c20.89-0.81,38.29,4.05,40.72,11.07c1.87-1.68,2.87-3.47,2.8-5.3
					c-0.3-7.81-19.91-13.39-43.78-12.46c-23.88,0.93-42.99,8.02-42.68,15.83c0.07,1.83,1.21,3.53,3.2,5.06
					C305.59,350.2,322.56,344,343.45,343.18z"/>
				<path class="st34" d="M343.3,339.18c22.49-0.88,41.19,4.03,43.53,11.13c0.11-0.45,0.16-0.9,0.15-1.35
					c-0.3-7.81-19.91-13.39-43.78-12.46c-23.88,0.93-42.99,8.02-42.68,15.83c0.02,0.45,0.11,0.9,0.25,1.33
					C302.55,346.4,320.8,340.06,343.3,339.18z"/>
				<path class="st6" d="M343.19,336.5c23.54-0.92,42.9,4.5,43.74,12.13c0-0.11,0.02-0.22,0.01-0.33
					c-0.3-7.81-19.91-13.39-43.78-12.46c-23.88,0.93-42.99,8.02-42.68,15.83c0,0.11,0.03,0.22,0.04,0.33
					C300.77,344.31,319.66,337.41,343.19,336.5z"/>
			</g>
			<g>
				<ellipse class="st32" cx="280.1" cy="479.51" rx="36.71" ry="17.95"/>
				<path class="st33" d="M280.1,470.05c17.74,0,32.33,7.02,34.16,16.04c1.64-2.04,2.55-4.25,2.55-6.57
					c0-9.92-16.44-17.95-36.71-17.95c-20.27,0-36.71,8.04-36.71,17.95c0,2.32,0.91,4.54,2.55,6.57
					C247.77,477.07,262.36,470.05,280.1,470.05z"/>
				<path class="st34" d="M280.1,464.97c19.1,0,34.79,7.13,36.54,16.25c0.11-0.56,0.17-1.13,0.17-1.7
					c0-9.92-16.44-17.95-36.71-17.95c-20.27,0-36.71,8.04-36.71,17.95c0,0.57,0.06,1.14,0.17,1.7
					C245.32,472.1,261,464.97,280.1,464.97z"/>
				<path class="st6" d="M280.1,461.56c19.98,0,36.23,7.81,36.69,17.53c0.01-0.14,0.02-0.28,0.02-0.42
					c0-9.92-16.44-17.95-36.71-17.95c-20.27,0-36.71,8.04-36.71,17.95c0,0.14,0.02,0.28,0.02,0.42
					C243.87,469.37,260.12,461.56,280.1,461.56z"/>
			</g>
			<g>
				<path class="st32" d="M320.91,386.56c0,3.8-9.14,6.89-20.4,6.89c-11.27,0-20.4-3.08-20.4-6.89c0-3.8,9.14-6.89,20.4-6.89
					C311.78,379.67,320.91,382.76,320.91,386.56z"/>
				<path class="st33" d="M300.51,382.93c9.86,0,17.97,2.7,18.99,6.15c0.91-0.78,1.42-1.63,1.42-2.52c0-3.8-9.14-6.89-20.4-6.89
					c-11.27,0-20.4,3.08-20.4,6.89c0,0.89,0.51,1.74,1.42,2.52C282.53,385.62,290.65,382.93,300.51,382.93z"/>
				<path class="st34" d="M300.51,380.98c10.62,0,19.34,2.74,20.31,6.24c0.06-0.22,0.09-0.43,0.09-0.65c0-3.8-9.14-6.89-20.4-6.89
					c-11.27,0-20.4,3.08-20.4,6.89c0,0.22,0.03,0.44,0.09,0.65C281.17,383.72,289.89,380.98,300.51,380.98z"/>
				<path class="st6" d="M300.51,379.67c11.11,0,20.14,3,20.39,6.73c0-0.05,0.01-0.11,0.01-0.16c0-3.8-9.14-6.89-20.4-6.89
					c-11.27,0-20.4,3.08-20.4,6.89c0,0.05,0.01,0.11,0.01,0.16C280.37,382.67,289.4,379.67,300.51,379.67z"/>
			</g>
			<g>
				<path class="st32" d="M296.15,425.14c0.29,2.16-4.67,4.62-11.08,5.48c-6.41,0.86-11.84-0.2-12.13-2.36
					c-0.29-2.16,4.67-4.62,11.08-5.48C290.43,421.91,295.86,422.97,296.15,425.14z"/>
				<path class="st33" d="M284.26,424.63c5.61-0.75,10.43,0.16,11.27,2.05c0.46-0.51,0.68-1.04,0.61-1.54
					c-0.29-2.16-5.72-3.22-12.13-2.36c-6.41,0.86-11.37,3.31-11.08,5.48c0.07,0.51,0.42,0.95,1,1.33
					C274.24,427.53,278.65,425.38,284.26,424.63z"/>
				<path class="st34" d="M284.11,423.52c6.04-0.81,11.21,0.08,12.03,2c0.02-0.13,0.02-0.25,0-0.38c-0.29-2.16-5.72-3.22-12.13-2.36
					c-6.41,0.86-11.37,3.31-11.08,5.48c0.02,0.13,0.05,0.25,0.1,0.36C273.32,426.55,278.07,424.33,284.11,423.52z"/>
				<path class="st6" d="M284.01,422.78c6.32-0.85,11.68,0.17,12.11,2.27c0-0.03,0-0.06-0.01-0.09c-0.29-2.16-5.72-3.22-12.13-2.36
					c-6.41,0.86-11.37,3.31-11.08,5.48c0,0.03,0.01,0.06,0.02,0.09C272.79,426.02,277.69,423.62,284.01,422.78z"/>
			</g>
			<g>
				<ellipse class="st32" cx="500.82" cy="505.19" rx="42.32" ry="20.63"/>
				<path class="st33" d="M500.82,494.31c20.45,0,37.28,8.07,39.38,18.43c1.89-2.34,2.94-4.89,2.94-7.55
					c0-11.39-18.95-20.63-42.32-20.63s-42.32,9.24-42.32,20.63c0,2.67,1.05,5.21,2.94,7.55
					C463.54,502.39,480.37,494.31,500.82,494.31z"/>
				<path class="st34" d="M500.82,488.48c22.02,0,40.1,8.2,42.13,18.67c0.12-0.64,0.19-1.3,0.19-1.96
					c0-11.39-18.95-20.63-42.32-20.63c-23.37,0-42.32,9.24-42.32,20.63c0,0.66,0.07,1.31,0.19,1.96
					C460.71,496.68,478.8,488.48,500.82,488.48z"/>
				<path class="st6" d="M500.82,484.56c23.04,0,41.77,8.98,42.3,20.15c0.01-0.16,0.03-0.32,0.03-0.48
					c0-11.39-18.95-20.63-42.32-20.63s-42.32,9.24-42.32,20.63c0,0.16,0.02,0.32,0.03,0.48
					C459.05,493.54,477.78,484.56,500.82,484.56z"/>
			</g>
			<g>
				
					<ellipse transform="matrix(0.1368 -0.9906 0.9906 0.1368 36.3316 743.3049)" class="st32" cx="444.67" cy="350.81" rx="6.89" ry="20.4"/>
				<path class="st33" d="M445.17,347.21c9.77,1.35,17.43,5.13,17.97,8.69c1.01-0.65,1.63-1.42,1.75-2.3
					c0.52-3.77-8.11-8.07-19.27-9.62c-11.16-1.54-20.63,0.26-21.15,4.03c-0.12,0.88,0.26,1.79,1.06,2.69
					C426.99,347.42,435.4,345.86,445.17,347.21z"/>
				<path class="st34" d="M445.43,345.28c10.52,1.45,18.78,5.36,19.27,8.95c0.09-0.21,0.15-0.42,0.18-0.63
					c0.52-3.77-8.11-8.07-19.27-9.62c-11.16-1.54-20.63,0.26-21.15,4.03c-0.03,0.22-0.03,0.44,0,0.66
					C425.9,345.34,434.92,343.82,445.43,345.28z"/>
				<path class="st6" d="M445.61,343.98c11,1.52,19.54,5.72,19.28,9.45c0.01-0.05,0.03-0.1,0.03-0.16
					c0.52-3.77-8.11-8.07-19.27-9.62c-11.16-1.54-20.63,0.26-21.15,4.03c-0.01,0.05-0.01,0.11-0.01,0.16
					C425.25,344.2,434.61,342.46,445.61,343.98z"/>
			</g>
			<path class="st30" d="M405.38,319.96c0,0-23.36-3.31-47.85-2.59c-24.5,0.73-47.62,5.42-47.62,5.42l-7.61,9.2l55.61-1.65
				l55.61-1.65L405.38,319.96z"/>
			<path class="st30" d="M495.61,331.71c0,0-12.37-5.84-26.02-7.82c-13.65-1.98-27.17,0.11-27.17,0.11l-5.67,8.24l30.98,4.49
				l30.98,4.49L495.61,331.71z"/>
			<path class="st30" d="M606.82,364.03c0,0-17.74-11.06-38.06-18.01c-20.32-6.95-41.11-9.08-41.11-9.08l-9.95,7.75l46.12,15.78
				l46.12,15.78L606.82,364.03z"/>
			<path class="st30" d="M149.38,365.64c0,0,23.6-12.67,50.02-21.31c26.42-8.64,52.95-12.34,52.95-12.34l11.77,7.26l-59.98,19.6
				l-59.98,19.6L149.38,365.64z"/>
			<path class="st30" d="M736.43,456.97c0,0-16.08-21.83-37.34-39.74c-21.26-17.91-45.51-30.04-45.51-30.04l-15.98,5.09l48.26,40.65
				l48.26,40.65L736.43,456.97z"/>
			<path class="st30" d="M36.21,441.19c0,0,14.01-16.47,31.78-29.87c17.77-13.39,37.46-22.33,37.46-22.33l12.07,4.12l-40.33,30.41
				l-40.33,30.41L36.21,441.19z"/>
			<g>
				<path class="st32" d="M92.1,422c1.91,3.22-3.34,9.85-11.72,14.81c-8.38,4.96-16.72,6.37-18.62,3.15
					c-1.91-3.22,3.34-9.85,11.72-14.81C81.85,420.19,90.19,418.78,92.1,422z"/>
				<path class="st6" d="M73.47,425.15c8.38-4.96,16.72-6.37,18.62-3.15c0.03,0.06,0.06,0.12,0.09,0.17
					c-0.06-0.16-0.13-0.32-0.22-0.47c-1.91-3.22-10.24-1.81-18.62,3.15c-8.23,4.87-13.44,11.36-11.81,14.64
					C60.35,436.12,65.48,429.88,73.47,425.15z"/>
				<path class="st33" d="M92.1,422c-1.91-3.22-10.24-1.81-18.62,3.15c-8.38,4.96-13.63,11.59-11.72,14.81
					c0.2,0.34,0.48,0.63,0.82,0.87c1.55-3.31,5.79-7.44,11.47-10.8c7.49-4.43,14.94-6.02,17.8-4.02
					C92.58,424.43,92.71,423.04,92.1,422z"/>
				<path class="st34" d="M74.31,426.57c7.75-4.59,15.47-6.13,18.09-3.79c-0.06-0.28-0.16-0.54-0.3-0.78
					c-1.91-3.22-10.24-1.81-18.62,3.15c-8.38,4.96-13.63,11.59-11.72,14.81c0.14,0.24,0.32,0.45,0.54,0.64
					C61.49,437.18,66.56,431.16,74.31,426.57z"/>
			</g>
		</g>
		<path class="st13" d="M552.13,269.89l-7.23-1.27c-0.11-0.02-0.2-0.11-0.22-0.22l-1.27-7.23c-0.05-0.3-0.48-0.3-0.53,0l-1.27,7.23
			c-0.02,0.11-0.11,0.2-0.22,0.22l-7.23,1.27c-0.3,0.05-0.3,0.48,0,0.53l7.23,1.27c0.11,0.02,0.2,0.11,0.22,0.22l1.27,7.23
			c0.05,0.3,0.48,0.3,0.53,0l1.27-7.23c0.02-0.11,0.11-0.2,0.22-0.22l7.23-1.27C552.42,270.37,552.42,269.94,552.13,269.89z"/>
		<path class="st13" d="M561.34,60.02l-7.23-1.27c-0.11-0.02-0.2-0.11-0.22-0.22l-1.27-7.23c-0.05-0.3-0.48-0.3-0.53,0l-1.27,7.23
			c-0.02,0.11-0.11,0.2-0.22,0.22l-7.23,1.27c-0.3,0.05-0.3,0.48,0,0.53l7.23,1.27c0.11,0.02,0.2,0.11,0.22,0.22l1.27,7.23
			c0.05,0.3,0.48,0.3,0.53,0l1.27-7.23c0.02-0.11,0.11-0.2,0.22-0.22l7.23-1.27C561.64,60.5,561.64,60.07,561.34,60.02z"/>
		<path class="st13" d="M39.55,191.27l-7.23-1.27c-0.11-0.02-0.2-0.11-0.22-0.22l-1.27-7.23c-0.05-0.3-0.48-0.3-0.53,0l-1.27,7.23
			c-0.02,0.11-0.11,0.2-0.22,0.22l-7.23,1.27c-0.3,0.05-0.3,0.48,0,0.53l7.23,1.27c0.11,0.02,0.2,0.11,0.22,0.22l1.27,7.23
			c0.05,0.3,0.48,0.3,0.53,0l1.27-7.23c0.02-0.11,0.11-0.2,0.22-0.22l7.23-1.27C39.85,191.75,39.85,191.32,39.55,191.27z"/>
		<path class="st13" d="M725.59,307l-7.23-1.27c-0.11-0.02-0.2-0.11-0.22-0.22l-1.27-7.23c-0.05-0.3-0.48-0.3-0.53,0l-1.27,7.23
			c-0.02,0.11-0.11,0.2-0.22,0.22l-7.23,1.27c-0.3,0.05-0.3,0.48,0,0.53l7.23,1.27c0.11,0.02,0.2,0.11,0.22,0.22l1.27,7.23
			c0.05,0.3,0.48,0.3,0.53,0l1.27-7.23c0.02-0.11,0.11-0.2,0.22-0.22l7.23-1.27C725.88,307.48,725.88,307.05,725.59,307z"/>
		<path class="st13" d="M127.9,24.05l-7.23-1.27c-0.11-0.02-0.2-0.11-0.22-0.22l-1.27-7.23c-0.05-0.3-0.48-0.3-0.53,0l-1.27,7.23
			c-0.02,0.11-0.11,0.2-0.22,0.22l-7.23,1.27c-0.3,0.05-0.3,0.48,0,0.53l7.23,1.27c0.11,0.02,0.2,0.11,0.22,0.22l1.27,7.23
			c0.05,0.3,0.48,0.3,0.53,0l1.27-7.23c0.02-0.11,0.11-0.2,0.22-0.22l7.23-1.27C128.19,24.53,128.19,24.11,127.9,24.05z"/>
		<path class="st13" d="M231.59,123.83l-7.23-1.27c-0.11-0.02-0.2-0.11-0.22-0.22l-1.27-7.23c-0.05-0.3-0.48-0.3-0.53,0l-1.27,7.23
			c-0.02,0.11-0.11,0.2-0.22,0.22l-7.23,1.27c-0.3,0.05-0.3,0.48,0,0.53l7.23,1.27c0.11,0.02,0.2,0.11,0.22,0.22l1.27,7.23
			c0.05,0.3,0.48,0.3,0.53,0l1.27-7.23c0.02-0.11,0.11-0.2,0.22-0.22l7.23-1.27C231.89,124.31,231.89,123.88,231.59,123.83z"/>
		<path class="st13" d="M195.14,201.81l-7.23-1.27c-0.11-0.02-0.2-0.11-0.22-0.22l-1.27-7.23c-0.05-0.3-0.48-0.3-0.53,0l-1.27,7.23
			c-0.02,0.11-0.11,0.2-0.22,0.22l-7.23,1.27c-0.3,0.05-0.3,0.48,0,0.53l7.23,1.27c0.11,0.02,0.2,0.11,0.22,0.22l1.27,7.23
			c0.05,0.3,0.48,0.3,0.53,0l1.27-7.23c0.02-0.11,0.11-0.2,0.22-0.22l7.23-1.27C195.44,202.29,195.44,201.86,195.14,201.81z"/>
		<path class="st35" d="M596.46,187.23c0,2.38-1.93,4.3-4.3,4.3c-2.37,0-4.3-1.93-4.3-4.3c0-2.37,1.93-4.3,4.3-4.3
			C594.54,182.93,596.46,184.86,596.46,187.23z"/>
		<path class="st35" d="M45.4,400.44c0,2.37-1.93,4.3-4.3,4.3c-2.37,0-4.3-1.93-4.3-4.3s1.93-4.3,4.3-4.3
			C43.48,396.14,45.4,398.07,45.4,400.44z"/>
		<path class="st35" d="M644.19,369.83c0,2.38-1.93,4.3-4.3,4.3c-2.38,0-4.3-1.93-4.3-4.3c0-2.37,1.93-4.3,4.3-4.3
			C642.27,365.53,644.19,367.45,644.19,369.83z"/>
		<path class="st35" d="M685.59,133.31c0,2.37-1.93,4.3-4.3,4.3s-4.3-1.93-4.3-4.3c0-2.38,1.93-4.3,4.3-4.3
			S685.59,130.93,685.59,133.31z"/>
		<circle class="st35" cx="300.48" cy="54.4" r="4.3"/>
		<path class="st35" d="M730.11,228.43c0,2.38-1.93,4.3-4.3,4.3c-2.37,0-4.3-1.93-4.3-4.3c0-2.37,1.93-4.3,4.3-4.3
			C728.18,224.13,730.11,226.06,730.11,228.43z"/>
		<circle class="st35" cx="45.4" cy="37.46" r="4.3"/>
		<circle class="st36" cx="716.6" cy="389.56" r="4.3"/>
		<path class="st36" d="M158.18,106.93c0,2.37-1.93,4.3-4.3,4.3c-2.37,0-4.3-1.93-4.3-4.3c0-2.38,1.93-4.3,4.3-4.3
			C156.25,102.63,158.18,104.55,158.18,106.93z"/>
		<path class="st36" d="M605.08,124.1c0,2.37-1.93,4.3-4.3,4.3c-2.38,0-4.3-1.93-4.3-4.3s1.93-4.3,4.3-4.3
			C603.15,119.79,605.08,121.72,605.08,124.1z"/>
		<path class="st36" d="M538.23,218.75c0,2.37-1.93,4.3-4.3,4.3c-2.37,0-4.3-1.93-4.3-4.3c0-2.38,1.93-4.3,4.3-4.3
			C536.3,214.45,538.23,216.37,538.23,218.75z"/>
		<circle class="st36" cx="67.2" cy="283.9" r="4.3"/>
		<path class="st35" d="M236.11,233.13c0,2.37-1.93,4.3-4.3,4.3c-2.37,0-4.3-1.93-4.3-4.3c0-2.37,1.93-4.3,4.3-4.3
			C234.19,228.82,236.11,230.75,236.11,233.13z"/>
		<path class="st35" d="M522,22.29c0,2.37-1.93,4.3-4.3,4.3c-2.37,0-4.3-1.93-4.3-4.3s1.93-4.3,4.3-4.3
			C520.08,17.99,522,19.92,522,22.29z"/>
		<path class="st35" d="M588.25,30.89c0,2.38-1.93,4.3-4.3,4.3c-2.37,0-4.3-1.93-4.3-4.3c0-2.37,1.93-4.3,4.3-4.3
			C586.32,26.59,588.25,28.52,588.25,30.89z"/>
		<path class="st35" d="M441.04,141.56c0,2.37-1.93,4.3-4.3,4.3c-2.38,0-4.3-1.93-4.3-4.3s1.93-4.3,4.3-4.3
			C439.12,137.26,441.04,139.18,441.04,141.56z"/>
		<path class="st35" d="M153.88,39.96c0,2.37-1.93,4.3-4.3,4.3c-2.37,0-4.3-1.93-4.3-4.3c0-2.37,1.93-4.3,4.3-4.3
			C151.95,35.66,153.88,37.59,153.88,39.96z"/>
	</g>
	<g class="st37">
		<text transform="matrix(1 0 0 1 285.8083 249.0797)" class="st38 st39 st40">MARS</text>
		<text transform="matrix(1 0 0 1 262.6667 283.9049)" class="st38 st39 st41">BACKGROUND</text>
		<g class="st42">
			<path class="st15" d="M488.71,249.08h-6.48v-51.79c0-1.97-1.6-3.58-3.58-3.58H275.83c-1.97,0-3.58,1.6-3.58,3.58v51.79h-6.48
				v-51.79c0-5.55,4.51-10.06,10.06-10.06h202.82c5.55,0,10.06,4.51,10.06,10.06V249.08z"/>
		</g>
	</g>
</g>
</svg>
